<svg width="20" height="20" viewBox="0 0 20 20" fill="none" xmlns="http://www.w3.org/2000/svg">
<g clip-path="url(#clip0_466_2379)">
<path d="M9.99961 2.91699C13.1087 2.91699 15.6486 5.34943 15.8224 8.41504C17.7295 8.79701 19.1663 10.4808 19.1663 12.5003C19.1663 14.8015 17.3008 16.667 14.9996 16.667H13.7496C13.2895 16.6668 12.9163 16.2938 12.9163 15.8337C12.9163 15.3735 13.2895 15.0005 13.7496 15.0003H14.9996L15.1282 14.9971C16.4491 14.9301 17.4996 13.8379 17.4996 12.5003C17.4996 11.1196 16.3803 10.0003 14.9996 10.0003H14.0759L14.15 9.09863C14.16 8.97716 14.1663 8.86185 14.1663 8.75032C14.1663 6.44914 12.3008 4.58366 9.99961 4.58366C7.69859 4.58385 5.83295 6.44926 5.83295 8.75032C5.83295 8.86184 5.8392 8.97717 5.84922 9.09863L5.92328 10.0003H4.99961C3.61907 10.0005 2.49961 11.1197 2.49961 12.5003C2.49961 13.8809 3.61907 15.0001 4.99961 15.0003H6.24961C6.70985 15.0003 7.08295 15.3734 7.08295 15.8337C7.08295 16.2939 6.70985 16.667 6.24961 16.667H4.99961C2.69859 16.6668 0.832947 14.8014 0.832947 12.5003C0.832947 10.4812 2.26949 8.79745 4.17605 8.41504C4.34977 5.34952 6.89066 2.91718 9.99961 2.91699Z" fill="black"/>
<path d="M9.99961 8.33366C10.4598 8.33366 10.8329 8.70675 10.8329 9.16699V13.3337H11.3212C12.0636 13.3337 12.4354 14.2312 11.9104 14.7562L10.5896 16.0778C10.2642 16.4032 9.73586 16.4032 9.41042 16.0778L8.08962 14.7562C7.56465 14.2312 7.93639 13.3337 8.67881 13.3337H9.16628V9.16699C9.16628 8.70689 9.53956 8.33388 9.99961 8.33366Z" fill="black"/>
</g>
<defs>
<clipPath id="clip0_466_2379">
<rect width="20" height="20" fill="white"/>
</clipPath>
</defs>
</svg>
