<svg width="24" height="24" viewBox="0 0 24 24" fill="none" xmlns="http://www.w3.org/2000/svg">
<path d="M11.9996 1C18.0747 1 22.9996 5.92487 22.9996 12C22.9996 18.0751 18.0747 23 11.9996 23C5.92448 23 0.999604 18.0751 0.999603 12C0.999603 5.92487 5.92448 1 11.9996 1ZM11.9996 3C7.02904 3 2.9996 7.02943 2.9996 12C2.9996 16.9706 7.02904 21 11.9996 21C16.9702 21 20.9996 16.9706 20.9996 12C20.9996 7.02943 16.9702 3 11.9996 3ZM14.8043 15.5215C15.4068 15.5215 15.8951 16.0098 15.8951 16.6123C15.8951 17.2148 15.4068 17.7031 14.8043 17.7031H9.19394C8.59145 17.7031 8.10312 17.2148 8.10312 16.6123C8.10312 16.0098 8.59145 15.5215 9.19394 15.5215H14.8043ZM7.9371 11.2656C8.6156 11.2656 9.16562 11.8156 9.16562 12.4941C9.16562 13.1726 8.6156 13.7227 7.9371 13.7227C7.25861 13.7227 6.70859 13.1726 6.70859 12.4941C6.70859 11.8157 7.25861 11.2656 7.9371 11.2656ZM11.9996 11.2656C12.6781 11.2656 13.2281 11.8156 13.2281 12.4941C13.2281 13.1726 12.6781 13.7227 11.9996 13.7227C11.3211 13.7227 10.7711 13.1726 10.7711 12.4941C10.7711 11.8157 11.3211 11.2656 11.9996 11.2656ZM16.0631 11.2656C16.7416 11.2656 17.2916 11.8156 17.2916 12.4941C17.2916 13.1726 16.7416 13.7227 16.0631 13.7227C15.3846 13.7227 14.8346 13.1726 14.8346 12.4941C14.8346 11.8157 15.3846 11.2656 16.0631 11.2656ZM7.9371 7.26562C8.6156 7.26562 9.16562 7.81565 9.16562 8.49414C9.16562 9.17263 8.6156 9.72266 7.9371 9.72266C7.25861 9.72265 6.70859 9.17263 6.70859 8.49414C6.70859 7.81565 7.25861 7.26563 7.9371 7.26562ZM11.9996 7.26562C12.6781 7.26562 13.2281 7.81565 13.2281 8.49414C13.2281 9.17263 12.6781 9.72266 11.9996 9.72266C11.3211 9.72265 10.7711 9.17263 10.7711 8.49414C10.7711 7.81565 11.3211 7.26563 11.9996 7.26562ZM16.0631 7.26562C16.7416 7.26562 17.2916 7.81565 17.2916 8.49414C17.2916 9.17263 16.7416 9.72266 16.0631 9.72266C15.3846 9.72265 14.8346 9.17263 14.8346 8.49414C14.8346 7.81565 15.3846 7.26563 16.0631 7.26562Z" fill="#0F1E2B"/>
</svg>
