<svg width="16" height="16" viewBox="0 0 16 16" fill="none" xmlns="http://www.w3.org/2000/svg">
<path d="M9.33301 8.68262C10.7573 8.68262 11.9464 9.68155 12.2432 11.0166H14.667C15.0258 11.0168 15.3164 11.3081 15.3164 11.667C15.3164 12.0259 15.0258 12.3172 14.667 12.3174H12.2432C11.9458 13.6516 10.7568 14.6494 9.33301 14.6494C7.68551 14.6492 6.34961 13.3136 6.34961 11.666C6.34979 10.0186 7.68562 8.68279 9.33301 8.68262ZM9.33301 9.9834C8.40359 9.98357 7.65057 10.7366 7.65039 11.666C7.65039 12.5956 8.40348 13.3494 9.33301 13.3496C10.2627 13.3496 11.0166 12.5957 11.0166 11.666C11.0164 10.7365 10.2626 9.9834 9.33301 9.9834ZM5.33301 11.0166C5.69199 11.0166 5.9834 11.308 5.9834 11.667C5.9834 12.026 5.69199 12.3174 5.33301 12.3174H1.33301C0.974177 12.3172 0.682617 12.0259 0.682617 11.667C0.682617 11.3081 0.974177 11.0168 1.33301 11.0166H5.33301ZM6.66602 1.34961C8.31356 1.34961 9.64924 2.68551 9.64941 4.33301C9.64941 5.98066 8.31367 7.31641 6.66602 7.31641C5.24217 7.3161 4.05284 6.3179 3.75586 4.9834H1.33301C0.974177 4.98322 0.682617 4.69188 0.682617 4.33301C0.682617 3.97413 0.974177 3.6828 1.33301 3.68262H3.75586C4.05295 2.3482 5.24228 1.34992 6.66602 1.34961ZM6.66602 2.65039C5.73675 2.65075 4.98357 3.4037 4.9834 4.33301C4.9834 5.26247 5.73664 6.01624 6.66602 6.0166C7.59569 6.0166 8.34961 5.26269 8.34961 4.33301C8.34943 3.40348 7.59559 2.65039 6.66602 2.65039ZM14.667 3.68262C15.0258 3.6828 15.3174 3.97413 15.3174 4.33301C15.3174 4.69188 15.0258 4.98322 14.667 4.9834H10.667C10.308 4.9834 10.0166 4.69199 10.0166 4.33301C10.0166 3.97402 10.308 3.68262 10.667 3.68262H14.667Z" fill="white"/>
</svg>
