<svg width="14" height="14" viewBox="0 0 14 14" fill="none" xmlns="http://www.w3.org/2000/svg">
<path d="M7 1.75C8.99978 1.75 9.99982 1.74984 10.7383 2.19238C11.1771 2.45541 11.5446 2.82288 11.8076 3.26172C12.2502 4.00018 12.25 5.00022 12.25 7C12.25 8.99978 12.2502 9.99982 11.8076 10.7383C11.5446 11.1771 11.1771 11.5446 10.7383 11.8076C9.99982 12.2502 8.99978 12.25 7 12.25C5.00022 12.25 4.00018 12.2502 3.26172 11.8076C2.82288 11.5446 2.45541 11.1771 2.19238 10.7383C1.74984 9.99982 1.75 8.99978 1.75 7C1.75 5.00022 1.74984 4.00018 2.19238 3.26172C2.45541 2.82288 2.82288 2.45541 3.26172 2.19238C4.00018 1.74984 5.00022 1.75 7 1.75ZM7 4.34961C5.53607 4.34961 4.34961 5.53607 4.34961 7C4.34961 8.46393 5.53607 9.65039 7 9.65039C8.46393 9.65039 9.65039 8.46393 9.65039 7C9.65039 5.53607 8.46393 4.34961 7 4.34961ZM7 5.53516C7.80886 5.53516 8.46484 6.19114 8.46484 7C8.46484 7.80886 7.80886 8.46484 7 8.46484C6.19114 8.46484 5.53516 7.80886 5.53516 7C5.53516 6.19114 6.19114 5.53516 7 5.53516ZM9.99023 3.55664C9.5676 3.55664 9.22461 3.89963 9.22461 4.32227C9.22484 4.7447 9.56775 5.08691 9.99023 5.08691C10.4125 5.08669 10.7546 4.74456 10.7549 4.32227C10.7549 3.89977 10.4127 3.55686 9.99023 3.55664Z" fill="white"/>
</svg>
