<svg width="48" height="48" viewBox="0 0 48 48" fill="none" xmlns="http://www.w3.org/2000/svg">
<path d="M32 11.7002C32 10.8788 31.9987 10.3478 31.9531 9.95117C31.9099 9.57543 31.8382 9.44816 31.7852 9.38086C31.7365 9.31919 31.6808 9.26348 31.6191 9.21485C31.5518 9.16179 31.4246 9.09006 31.0488 9.04688C30.6522 9.00132 30.1212 9 29.2998 9H18.7002C17.8788 9 17.3478 9.00132 16.9512 9.04688C16.5754 9.09006 16.4482 9.16179 16.3809 9.21485C16.3192 9.26348 16.2635 9.31919 16.2148 9.38086C16.1618 9.44816 16.0901 9.57543 16.0469 9.95117C16.0013 10.3478 16 10.8788 16 11.7002V36.2998C16 37.1212 16.0013 37.6522 16.0469 38.0488C16.0901 38.4246 16.1618 38.5518 16.2148 38.6191C16.2635 38.6808 16.3192 38.7365 16.3809 38.7852C16.4482 38.8382 16.5754 38.9099 16.9512 38.9531C17.3478 38.9987 17.8788 39 18.7002 39H29.2998C30.1212 39 30.6522 38.9987 31.0488 38.9531C31.4246 38.9099 31.5518 38.8382 31.6191 38.7852C31.6808 38.7365 31.7365 38.6808 31.7852 38.6191C31.8382 38.5518 31.9099 38.4246 31.9531 38.0488C31.9987 37.6522 32 37.1212 32 36.2998V11.7002ZM34 36.2998C34 37.0739 34.0012 37.74 33.9395 38.2773C33.8753 38.8356 33.7318 39.3801 33.3555 39.8574C33.2096 40.0424 33.0424 40.2096 32.8574 40.3555C32.3801 40.7318 31.8356 40.8753 31.2773 40.9395C30.74 41.0012 30.0739 41 29.2998 41H18.7002C17.9261 41 17.26 41.0012 16.7227 40.9395C16.1644 40.8753 15.6199 40.7318 15.1426 40.3555C14.9576 40.2096 14.7904 40.0424 14.6445 39.8574C14.2682 39.3801 14.1247 38.8356 14.0605 38.2773C13.9988 37.74 14 37.0739 14 36.2998V11.7002C14 10.9261 13.9988 10.26 14.0605 9.72266C14.1247 9.1644 14.2682 8.61993 14.6445 8.14258C14.7904 7.95756 14.9576 7.79043 15.1426 7.64453C15.6199 7.26822 16.1644 7.12471 16.7227 7.06055C17.26 6.9988 17.9261 7 18.7002 7H29.2998C30.0739 7 30.74 6.9988 31.2773 7.06055C31.8356 7.12471 32.3801 7.26822 32.8574 7.64453C33.0424 7.79043 33.2096 7.95756 33.3555 8.14258C33.7318 8.61993 33.8753 9.1644 33.9395 9.72266C34.0012 10.26 34 10.9261 34 11.7002V36.2998Z" fill="white"/>
</svg>
