<svg width="48" height="48" viewBox="0 0 48 48" fill="none" xmlns="http://www.w3.org/2000/svg">
<path d="M15.7002 16C14.8788 16 14.3478 16.0013 13.9512 16.0469C13.5754 16.0901 13.4482 16.1618 13.3809 16.2148C13.3192 16.2635 13.2635 16.3192 13.2148 16.3809C13.1618 16.4482 13.0901 16.5754 13.0469 16.9512C13.0013 17.3478 13 17.8788 13 18.7002V29.2998C13 30.1212 13.0013 30.6522 13.0469 31.0488C13.0901 31.4246 13.1618 31.5518 13.2148 31.6191C13.2635 31.6808 13.3192 31.7365 13.3809 31.7852C13.4482 31.8382 13.5754 31.9099 13.9512 31.9531C14.3478 31.9987 14.8788 32 15.7002 32H32.2998C33.1212 32 33.6522 31.9987 34.0488 31.9531C34.4246 31.9099 34.5518 31.8382 34.6191 31.7852C34.6808 31.7365 34.7365 31.6808 34.7852 31.6191C34.8382 31.5518 34.9099 31.4246 34.9531 31.0488C34.9987 30.6522 35 30.1212 35 29.2998V18.7002C35 17.8788 34.9987 17.3478 34.9531 16.9512C34.9099 16.5754 34.8382 16.4482 34.7852 16.3809C34.7365 16.3192 34.6808 16.2635 34.6191 16.2148C34.5518 16.1618 34.4246 16.0901 34.0488 16.0469C33.6522 16.0013 33.1212 16 32.2998 16H15.7002ZM32.2998 14C33.0739 14 33.74 13.9988 34.2773 14.0605C34.8356 14.1247 35.3801 14.2682 35.8574 14.6445C36.0424 14.7904 36.2096 14.9576 36.3555 15.1426C36.7318 15.6199 36.8753 16.1644 36.9395 16.7227C37.0012 17.26 37 17.9261 37 18.7002V29.2998C37 30.0739 37.0012 30.74 36.9395 31.2773C36.8753 31.8356 36.7318 32.3801 36.3555 32.8574C36.2096 33.0424 36.0424 33.2096 35.8574 33.3555C35.3801 33.7318 34.8356 33.8753 34.2773 33.9395C33.74 34.0012 33.0739 34 32.2998 34H15.7002C14.9261 34 14.26 34.0012 13.7227 33.9395C13.1644 33.8753 12.6199 33.7318 12.1426 33.3555C11.9576 33.2096 11.7904 33.0424 11.6445 32.8574C11.2682 32.3801 11.1247 31.8356 11.0605 31.2773C10.9988 30.74 11 30.0739 11 29.2998L11 18.7002C11 17.9261 10.9988 17.26 11.0605 16.7227C11.1247 16.1644 11.2682 15.6199 11.6445 15.1426C11.7904 14.9576 11.9576 14.7904 12.1426 14.6445C12.6199 14.2682 13.1644 14.1247 13.7227 14.0605C14.26 13.9988 14.9261 14 15.7002 14H32.2998Z" fill="white"/>
</svg>
