<svg width="48" height="48" viewBox="0 0 48 48" fill="none" xmlns="http://www.w3.org/2000/svg">
<path d="M31 15.7002C31 14.8788 30.9987 14.3478 30.9531 13.9512C30.9099 13.5754 30.8382 13.4482 30.7852 13.3809C30.7365 13.3192 30.6808 13.2635 30.6191 13.2148C30.5518 13.1618 30.4246 13.0901 30.0488 13.0469C29.6522 13.0013 29.1212 13 28.2998 13H19.7002C18.8788 13 18.3478 13.0013 17.9512 13.0469C17.5754 13.0901 17.4482 13.1618 17.3809 13.2148C17.3192 13.2635 17.2635 13.3192 17.2148 13.3809C17.1618 13.4482 17.0901 13.5754 17.0469 13.9512C17.0013 14.3478 17 14.8788 17 15.7002V32.2998C17 33.1212 17.0013 33.6522 17.0469 34.0488C17.0901 34.4246 17.1618 34.5518 17.2148 34.6191C17.2635 34.6808 17.3192 34.7365 17.3809 34.7852C17.4482 34.8382 17.5754 34.9099 17.9512 34.9531C18.3478 34.9987 18.8788 35 19.7002 35H28.2998C29.1212 35 29.6522 34.9987 30.0488 34.9531C30.4246 34.9099 30.5518 34.8382 30.6191 34.7852C30.6808 34.7365 30.7365 34.6808 30.7852 34.6191C30.8382 34.5518 30.9099 34.4246 30.9531 34.0488C30.9987 33.6522 31 33.1212 31 32.2998V15.7002ZM33 32.2998C33 33.0739 33.0012 33.74 32.9395 34.2773C32.8753 34.8356 32.7318 35.3801 32.3555 35.8574C32.2096 36.0424 32.0424 36.2096 31.8574 36.3555C31.3801 36.7318 30.8356 36.8753 30.2773 36.9395C29.74 37.0012 29.0739 37 28.2998 37H19.7002C18.9261 37 18.26 37.0012 17.7227 36.9395C17.1644 36.8753 16.6199 36.7318 16.1426 36.3555C15.9576 36.2096 15.7904 36.0424 15.6445 35.8574C15.2682 35.3801 15.1247 34.8356 15.0605 34.2773C14.9988 33.74 15 33.0739 15 32.2998V15.7002C15 14.9261 14.9988 14.26 15.0605 13.7227C15.1247 13.1644 15.2682 12.6199 15.6445 12.1426C15.7904 11.9576 15.9576 11.7904 16.1426 11.6445C16.6199 11.2682 17.1644 11.1247 17.7227 11.0605C18.26 10.9988 18.9261 11 19.7002 11H28.2998C29.0739 11 29.74 10.9988 30.2773 11.0605C30.8356 11.1247 31.3801 11.2682 31.8574 11.6445C32.0424 11.7904 32.2096 11.9576 32.3555 12.1426C32.7318 12.6199 32.8753 13.1644 32.9395 13.7227C33.0012 14.26 33 14.9261 33 15.7002V32.2998Z" fill="white"/>
</svg>
