<svg width="48" height="48" viewBox="0 0 48 48" fill="none" xmlns="http://www.w3.org/2000/svg">
<path fill-rule="evenodd" clip-rule="evenodd" d="M37.3619 16.5H34.5618V17.4934H32.5907V20.2796H34.6272V22.8063H31.5463V25.6441H34.4705V31.4184L37.4469 31.4133V25.8007L42.4607 25.8523L42.5653 29.2578H39.7966L40.7365 31.4133C40.7365 31.4133 41.8331 31.4247 43.452 31.4133C45.0709 31.402 45.384 29.6189 45.384 29.6189C45.384 29.6189 45.6449 26.3683 45.384 24.6398C45.1227 22.9112 42.0426 22.8596 42.0426 22.8596C42.0426 22.8596 41.9899 23.8916 42.0426 20.8988C42.0953 17.9061 39.3793 17.4934 39.3793 17.4934H37.3619V16.5ZM37.4469 22.8063H39.4312V20.2796H37.4469V22.8063Z" fill="#E6E8EC"/>
<path d="M42.7667 20.1192C42.7667 20.1192 42.3864 16.8674 44.5878 17.5845C46.3698 18.1639 45.41 21.0277 42.7667 20.1192Z" fill="#E6E8EC"/>
<path d="M5.39825 20.2796H2.66996L2.5 27.4516L3.50532 30.2902C4.02672 29.4941 4.49757 28.6668 4.91514 27.8131C5.59371 26.4195 5.39825 20.2796 5.39825 20.2796Z" fill="#E6E8EC"/>
<path d="M12.6042 20.2796H15.332L15.502 27.4516L14.4971 30.2902C13.9757 29.4941 13.5048 28.6668 13.0873 27.8131C12.4083 26.4195 12.6042 20.2796 12.6042 20.2796Z" fill="#E6E8EC"/>
<path d="M10.3458 16.6675H7.578L7.52616 29.1041H5.42417L6.37723 31.3214C7.23429 31.4444 8.10484 31.4444 8.9619 31.3214C10.3458 31.1152 10.3458 29.6189 10.3458 29.6189V16.6675Z" fill="#E6E8EC"/>
<path d="M19.3261 16.6675H22.2516L20.4249 20.4861L23.1927 20.589L20.8936 25.2847H22.9327L22.2528 27.5548H18.8587C17.3431 27.5548 17.8118 26.265 17.8118 26.265L19.3261 22.8596H17.7616C16.4019 22.8596 17.0818 21.3632 17.0818 21.3632L19.3261 16.6675Z" fill="#E6E8EC"/>
<path d="M21.8339 28.5869H17.134L16.1419 31.4133H20.6849L21.8339 28.5869Z" fill="#E6E8EC"/>
<path d="M30.7632 17.4934H24.2358V20.2796H26.0633V28.9996H23.4001L22.0425 31.4133H31.7549V28.9996H28.9353V20.2796H30.7632V17.4934Z" fill="#E6E8EC"/>
</svg>
