<svg width="48" height="48" viewBox="0 0 48 48" fill="none" xmlns="http://www.w3.org/2000/svg">
<path d="M35 15.7002C35 14.8788 34.9987 14.3478 34.9531 13.9512C34.9099 13.5754 34.8382 13.4482 34.7852 13.3809C34.7365 13.3192 34.6808 13.2635 34.6191 13.2148C34.5518 13.1618 34.4246 13.0901 34.0488 13.0469C33.6522 13.0013 33.1212 13 32.2998 13H15.7002C14.8788 13 14.3478 13.0013 13.9512 13.0469C13.5754 13.0901 13.4482 13.1618 13.3809 13.2148C13.3192 13.2635 13.2635 13.3192 13.2148 13.3809C13.1618 13.4482 13.0901 13.5754 13.0469 13.9512C13.0013 14.3478 13 14.8788 13 15.7002V32.2998C13 33.1212 13.0013 33.6522 13.0469 34.0488C13.0901 34.4246 13.1618 34.5518 13.2148 34.6191C13.2635 34.6808 13.3192 34.7365 13.3809 34.7852C13.4482 34.8382 13.5754 34.9099 13.9512 34.9531C14.3478 34.9987 14.8788 35 15.7002 35H32.2998C33.1212 35 33.6522 34.9987 34.0488 34.9531C34.4246 34.9099 34.5518 34.8382 34.6191 34.7852C34.6808 34.7365 34.7365 34.6808 34.7852 34.6191C34.8382 34.5518 34.9099 34.4246 34.9531 34.0488C34.9987 33.6522 35 33.1212 35 32.2998V15.7002ZM37 32.2998C37 33.0739 37.0012 33.74 36.9395 34.2773C36.8753 34.8356 36.7318 35.3801 36.3555 35.8574C36.2096 36.0424 36.0424 36.2096 35.8574 36.3555C35.3801 36.7318 34.8356 36.8753 34.2773 36.9395C33.74 37.0012 33.0739 37 32.2998 37H15.7002C14.9261 37 14.26 37.0012 13.7227 36.9395C13.1644 36.8753 12.6199 36.7318 12.1426 36.3555C11.9576 36.2096 11.7904 36.0424 11.6445 35.8574C11.2682 35.3801 11.1247 34.8356 11.0605 34.2773C10.9988 33.74 11 33.0739 11 32.2998V15.7002C11 14.9261 10.9988 14.26 11.0605 13.7227C11.1247 13.1644 11.2682 12.6199 11.6445 12.1426C11.7904 11.9576 11.9576 11.7904 12.1426 11.6445C12.6199 11.2682 13.1644 11.1247 13.7227 11.0605C14.26 10.9988 14.9261 11 15.7002 11H32.2998C33.0739 11 33.74 10.9988 34.2773 11.0605C34.8356 11.1247 35.3801 11.2682 35.8574 11.6445C36.0424 11.7904 36.2096 11.9576 36.3555 12.1426C36.7318 12.6199 36.8753 13.1644 36.9395 13.7227C37.0012 14.26 37 14.9261 37 15.7002V32.2998Z" fill="white"/>
</svg>
