<svg width="48" height="48" viewBox="0 0 48 48" fill="none" xmlns="http://www.w3.org/2000/svg">
<path d="M11.9321 15.9541C12.02 15.9541 12.0486 15.9881 12.0601 16.0693C12.113 16.4473 12.1712 16.8245 12.228 17.2021C12.2308 17.2211 12.2339 17.2403 12.2397 17.2705C12.2831 17.2727 12.3255 17.2773 12.3677 17.2773C14.3411 17.2773 16.3151 17.2776 18.2886 17.2793C18.3893 17.2793 18.4364 17.2589 18.4487 17.1484C18.4888 16.793 18.5435 16.4394 18.5854 16.084C18.5964 15.9922 18.6222 15.9533 18.7222 15.9541C19.3071 15.9586 19.8924 15.9586 20.4771 15.9541C20.5846 15.9541 20.6162 15.986 20.6021 16.0918C20.5545 16.4498 20.5122 16.8098 20.4683 17.1689C20.4644 17.1999 20.4629 17.2316 20.4585 17.2773H23.0854C23.2425 17.2773 23.2434 17.2782 23.2437 17.4375V18.7021C23.2437 18.8625 23.2436 18.8623 23.0767 18.8623H16.2935C16.2879 18.888 16.2843 18.9145 16.2817 18.9404C16.2817 19.2828 16.2831 19.6247 16.2798 19.9668C16.2798 20.0434 16.3021 20.0794 16.3804 20.0723H22.6118C22.7958 20.0723 22.7954 20.0719 22.7954 20.25V21.6279C22.7433 21.6304 22.705 21.6338 22.6665 21.6338H16.436C16.2818 21.6338 16.2808 21.6339 16.2808 21.7891V22.793H22.6157C22.7955 22.793 22.7954 22.7929 22.7954 22.9736V24.2031C22.7954 24.3644 22.7953 24.3652 22.6304 24.3652H16.4839C16.2397 24.3652 16.2829 24.3539 16.2817 24.5703C16.2795 24.9675 16.2817 25.3656 16.2817 25.7754C16.3192 25.7782 16.3536 25.7832 16.3872 25.7832H23.0483C23.2442 25.7832 23.2446 25.7835 23.2446 25.9766V27.1699C23.2446 27.3736 23.2441 27.374 23.0454 27.374H16.7642C16.8735 27.4935 16.9569 27.5914 17.0464 27.6826C17.7547 28.4005 18.5935 28.923 19.5112 29.3281C20.4444 29.7397 21.4183 30.0084 22.4233 30.1641C22.7601 30.2161 23.1012 30.2449 23.4399 30.2852C23.4595 30.2891 23.4795 30.2939 23.4985 30.2998C23.4902 30.3303 23.4778 30.3595 23.4644 30.3877C23.172 30.8981 22.8773 31.4078 22.5884 31.9199C22.5447 31.9974 22.4908 31.9972 22.4214 31.9883C21.6332 31.8868 20.8562 31.7125 20.1001 31.4678C18.8615 31.0668 17.7062 30.5013 16.6733 29.7012C16.208 29.3398 15.7833 28.9285 15.4077 28.4746L15.3237 28.376C15.1934 28.5329 15.07 28.6858 14.9419 28.835C14.2595 29.6218 13.4308 30.2181 12.5093 30.6904C11.4224 31.2475 10.2678 31.6063 9.06787 31.8154C8.49682 31.9145 7.91781 31.97 7.34229 32.0439C7.29485 32.0464 7.24714 32.047 7.19971 32.0439C7.28286 31.7771 7.35931 31.5271 7.43799 31.2793C7.53599 30.9691 7.63855 30.6586 7.73291 30.3467C7.76091 30.2547 7.80235 30.2179 7.90674 30.2129C9.89402 30.1196 11.6653 29.4629 13.1792 28.1582C13.4063 27.9623 13.5951 27.7217 13.7993 27.501C13.8321 27.4604 13.8631 27.4177 13.8911 27.374H7.53076C7.46167 27.3762 7.43283 27.3469 7.43311 27.2744C7.43506 26.8089 7.43506 26.3434 7.43311 25.8779C7.43316 25.8118 7.45672 25.7827 7.52295 25.7852H14.3403V25.5293C14.3403 25.1872 14.335 24.845 14.3423 24.5029C14.3445 24.3905 14.3072 24.3631 14.1997 24.3633C12.7832 24.3661 11.3659 24.3669 9.94971 24.3652H7.98096C7.82109 24.3652 7.8208 24.3653 7.8208 24.208C7.8208 23.7867 7.82444 23.3649 7.81689 22.9434C7.81465 22.8185 7.85834 22.7907 7.9751 22.791C10.036 22.7938 12.0968 22.7946 14.1577 22.793H14.3306V21.6348H14.1196C12.0707 21.6348 10.022 21.635 7.97314 21.6367C7.85546 21.6367 7.81572 21.6118 7.81787 21.4873C7.82599 21.0698 7.8208 20.6512 7.8208 20.2334C7.8208 20.0718 7.82075 20.0713 7.98779 20.0713H14.1948C14.3086 20.088 14.3445 20.0441 14.3423 19.9277C14.3347 19.5781 14.3394 19.2287 14.3394 18.8623H7.60205C7.43489 18.8623 7.43506 18.8622 7.43506 18.6934C7.43506 18.2678 7.43801 17.8419 7.43213 17.416C7.43051 17.3059 7.46407 17.273 7.57373 17.2744C8.40902 17.2786 9.2443 17.2773 10.0796 17.2773H10.2251C10.1921 17.0018 10.1592 16.7347 10.1265 16.4688C10.1102 16.3347 10.0964 16.2001 10.0757 16.0664C10.062 15.9805 10.0934 15.9541 10.1772 15.9541C10.7622 15.9563 11.3472 15.9563 11.9321 15.9541ZM39.7583 16.291C39.9127 16.2892 40.0662 16.3127 40.2134 16.3594C40.5796 16.4826 40.7841 16.7976 40.7964 17.2168V31.6836C40.7967 31.7194 40.8062 31.7604 40.7925 31.79C40.7752 31.827 40.7471 31.858 40.7114 31.8779C40.6826 31.8928 40.6408 31.8818 40.605 31.8818C35.9185 31.8818 31.2315 31.881 26.5444 31.8799C26.4013 31.8815 26.2578 31.8654 26.1187 31.832C25.6931 31.7219 25.4654 31.3852 25.4653 30.8848L25.4663 23.6758V16.4668C25.4663 16.2888 25.466 16.2881 25.6382 16.2881C30.345 16.2881 35.0515 16.2891 39.7583 16.291ZM27.3745 30.248H38.8892V17.9062H27.3745V30.248ZM36.2212 18.7188C36.3267 18.7188 36.366 18.7428 36.3638 18.8574C36.357 19.2192 36.3641 19.5816 36.3599 19.9434C36.3579 20.0441 36.3923 20.0712 36.4897 20.0703C36.9788 20.0664 37.4684 20.0703 37.9575 20.0664C38.0691 20.0664 38.1088 20.0961 38.1069 20.2139C38.1008 20.6316 38.1008 21.05 38.1069 21.4678C38.1083 21.5751 38.0723 21.6014 37.9702 21.6006C37.4811 21.5961 36.9913 21.5986 36.5024 21.5986H36.3608V26.0381C36.3569 27.1504 36.199 28.2393 35.8403 29.2959C35.8031 29.4056 35.7519 29.4396 35.6372 29.4385C35.0644 29.4323 34.4912 29.4365 33.9185 29.4365H33.7651C33.7866 29.3805 33.7984 29.3407 33.8159 29.3047C34.2809 28.3259 34.4896 27.2902 34.4888 26.209C34.4874 24.7211 34.4888 23.2323 34.4927 21.7441V21.6074H32.8667C32.8051 22.0459 32.756 22.4801 32.6821 22.9102C32.368 24.7242 31.8792 26.4908 31.103 28.166C30.9168 28.5687 30.6851 28.9511 30.4673 29.3389C30.4418 29.3839 30.372 29.43 30.3228 29.4307C29.6903 29.4368 29.0574 29.4349 28.4253 29.4346C28.4093 29.4343 28.3939 29.4307 28.3618 29.4268C29.8981 27.0356 30.6774 24.4079 30.9927 21.5996H30.8276C30.0283 21.5996 29.2279 21.5974 28.4292 21.6016C28.3178 21.6015 28.2769 21.5753 28.2788 21.457C28.2861 21.0472 28.2815 20.6371 28.2817 20.2275C28.2817 20.0711 28.2822 20.0693 28.4419 20.0693H34.2778C34.5164 20.0671 34.4909 20.0932 34.4917 19.8613C34.4931 19.5271 34.4956 19.1924 34.4897 18.8584C34.4882 18.7487 34.5248 18.7174 34.6333 18.7188C35.1624 18.7241 35.6918 18.7241 36.2212 18.7188Z" fill="white"/>
</svg>
