<svg width="48" height="48" viewBox="0 0 48 48" fill="none" xmlns="http://www.w3.org/2000/svg">
<path d="M23.541 15.4053C23.5328 15.4249 23.2833 16.0177 22.7607 16.9287C35.1074 13.4106 35.8359 19.0928 35.8359 19.0928C35.8435 19.1296 36.6423 23.0539 36.001 29.1865C35.3535 35.3297 27.4445 33.066 27.3984 33.0527L27.8262 31.2891L29.6699 31.6885C33.0753 31.9001 32.7461 28.9082 32.7461 28.9082V20.1885C32.7696 16.8772 29.6509 16.5292 24.0537 18.5518L25.3613 18.9092C25.2483 19.2902 24.8298 19.8966 24.2891 20.5596H31.7676V22.084H27.5625V23.9932H31.7539V25.5225H27.5625V28.7158C28.1881 28.5042 28.7768 28.2216 29.2754 27.8359L28.9082 26.4482L30.8838 25.8232L32.5342 29.8867L30.0977 30.917L29.665 29.29C28.5737 30.1319 26.3067 31.3542 22.3564 31.2461C18.128 31.3543 19.2188 26.4482 19.2188 26.4482L19.3271 26.3877H22.2949C22.2808 27.0226 22.0223 28.043 22.3701 28.6074C22.6617 29.0684 23.396 29.1484 23.8711 29.1719L24.0352 29.1768V25.5225H19.7363V23.998H24.0352V22.0889H22.9346C21.9704 23.1188 21.0811 23.9795 21.0811 23.9795L19.7832 22.832C20.7051 21.8537 21.6225 20.3014 22.1963 19.2666C21.7354 19.4547 21.2604 19.6569 20.7666 19.8779C20.2963 20.4893 19.7411 21.1194 19.125 21.7402C19.1484 21.7777 17.0154 20.5397 16.9941 20.5273C19.2061 18.6294 20.4519 14.56 20.4609 14.5303L23.541 15.4053ZM14.1719 19.6572C16.1001 21.101 16.2462 21.2233 17.5439 22.5352C18.5552 23.5652 18.4235 24.9814 17.8262 26.8252C17.2477 28.6405 17.4029 27.9681 15.0889 33.0146L11.75 30.917C11.7849 30.885 15.4835 27.4908 16.2373 25.9365C17.0557 24.2856 15.3477 23.4053 15.3477 23.4053L12.7793 21.8066L14.1719 19.6572ZM15.9971 14.8887C17.2104 14.8887 18.1932 15.7726 18.1934 16.873C18.1934 17.9642 17.2105 18.8486 15.9971 18.8486C14.7742 18.8486 13.8006 17.9596 13.7959 16.873C13.796 15.7772 14.7742 14.8887 15.9971 14.8887Z" fill="white"/>
</svg>
