<svg width="48" height="48" viewBox="0 0 48 48" fill="none" xmlns="http://www.w3.org/2000/svg">
<path d="M6.7002 17C5.87878 17 5.3478 17.0013 4.95117 17.0469C4.57543 17.0901 4.44816 17.1618 4.38086 17.2148C4.31919 17.2635 4.26348 17.3192 4.21485 17.3809C4.16179 17.4482 4.09006 17.5754 4.04688 17.9512C4.00132 18.3478 4 18.8788 4 19.7002L4 28.2998C4 29.1212 4.00132 29.6522 4.04688 30.0488C4.09006 30.4246 4.16179 30.5518 4.21485 30.6191C4.26348 30.6808 4.31919 30.7365 4.38086 30.7852C4.44816 30.8382 4.57543 30.9099 4.95117 30.9531C5.3478 30.9987 5.87878 31 6.7002 31L41.2998 31L42.334 30.9932C42.6188 30.9871 42.8506 30.9759 43.0488 30.9531C43.4246 30.9099 43.5518 30.8382 43.6191 30.7852C43.6808 30.7365 43.7365 30.6808 43.7852 30.6191C43.8382 30.5518 43.9099 30.4246 43.9531 30.0488C43.9987 29.6522 44 29.1212 44 28.2998V19.7002C44 18.8788 43.9987 18.3478 43.9531 17.9512C43.9099 17.5754 43.8382 17.4482 43.7852 17.3809C43.7365 17.3192 43.6808 17.2635 43.6191 17.2148C43.5518 17.1618 43.4246 17.0901 43.0488 17.0469C42.6522 17.0013 42.1212 17 41.2998 17L6.7002 17ZM41.2998 15C42.0739 15 42.74 14.9988 43.2773 15.0605C43.8356 15.1247 44.3801 15.2682 44.8574 15.6445C45.0424 15.7904 45.2096 15.9576 45.3555 16.1426C45.7318 16.6199 45.8753 17.1644 45.9395 17.7227C46.0012 18.26 46 18.9261 46 19.7002V28.2998C46 29.0739 46.0012 29.74 45.9395 30.2773C45.8753 30.8356 45.7318 31.3801 45.3555 31.8574C45.2096 32.0424 45.0424 32.2096 44.8574 32.3555C44.3801 32.7318 43.8356 32.8753 43.2773 32.9395C43.0088 32.9703 42.7082 32.9858 42.3779 32.9932L41.2998 33H6.7002C5.92611 33 5.26001 33.0012 4.72266 32.9395C4.1644 32.8753 3.61993 32.7318 3.14258 32.3555C2.95756 32.2096 2.79043 32.0424 2.64453 31.8574C2.26822 31.3801 2.12471 30.8356 2.06055 30.2773C1.9988 29.74 2 29.0739 2 28.2998L2 19.7002C2 18.9261 1.9988 18.26 2.06055 17.7227C2.12471 17.1644 2.26822 16.6199 2.64453 16.1426C2.79043 15.9576 2.95756 15.7904 3.14258 15.6445C3.61993 15.2682 4.1644 15.1247 4.72266 15.0605C5.26001 14.9988 5.92611 15 6.7002 15L41.2998 15Z" fill="white"/>
</svg>
