<svg width="48" height="48" viewBox="0 0 48 48" fill="none" xmlns="http://www.w3.org/2000/svg">
<path d="M32 15.7002C32 14.8788 31.9987 14.3478 31.9531 13.9512C31.9099 13.5754 31.8382 13.4482 31.7852 13.3809C31.7365 13.3192 31.6808 13.2635 31.6191 13.2148C31.5518 13.1618 31.4246 13.0901 31.0488 13.0469C30.6522 13.0013 30.1212 13 29.2998 13H18.7002C17.8788 13 17.3478 13.0013 16.9512 13.0469C16.5754 13.0901 16.4482 13.1618 16.3809 13.2148C16.3192 13.2635 16.2635 13.3192 16.2148 13.3809C16.1618 13.4482 16.0901 13.5754 16.0469 13.9512C16.0013 14.3478 16 14.8788 16 15.7002V32.2998C16 33.1212 16.0013 33.6522 16.0469 34.0488C16.0901 34.4246 16.1618 34.5518 16.2148 34.6191C16.2635 34.6808 16.3192 34.7365 16.3809 34.7852C16.4482 34.8382 16.5754 34.9099 16.9512 34.9531C17.3478 34.9987 17.8788 35 18.7002 35H29.2998C30.1212 35 30.6522 34.9987 31.0488 34.9531C31.4246 34.9099 31.5518 34.8382 31.6191 34.7852C31.6808 34.7365 31.7365 34.6808 31.7852 34.6191C31.8382 34.5518 31.9099 34.4246 31.9531 34.0488C31.9987 33.6522 32 33.1212 32 32.2998V15.7002ZM34 32.2998C34 33.0739 34.0012 33.74 33.9395 34.2773C33.8753 34.8356 33.7318 35.3801 33.3555 35.8574C33.2096 36.0424 33.0424 36.2096 32.8574 36.3555C32.3801 36.7318 31.8356 36.8753 31.2773 36.9395C30.74 37.0012 30.0739 37 29.2998 37H18.7002C17.9261 37 17.26 37.0012 16.7227 36.9395C16.1644 36.8753 15.6199 36.7318 15.1426 36.3555C14.9576 36.2096 14.7904 36.0424 14.6445 35.8574C14.2682 35.3801 14.1247 34.8356 14.0605 34.2773C13.9988 33.74 14 33.0739 14 32.2998V15.7002C14 14.9261 13.9988 14.26 14.0605 13.7227C14.1247 13.1644 14.2682 12.6199 14.6445 12.1426C14.7904 11.9576 14.9576 11.7904 15.1426 11.6445C15.6199 11.2682 16.1644 11.1247 16.7227 11.0605C17.26 10.9988 17.9261 11 18.7002 11H29.2998C30.0739 11 30.74 10.9988 31.2773 11.0605C31.8356 11.1247 32.3801 11.2682 32.8574 11.6445C33.0424 11.7904 33.2096 11.9576 33.3555 12.1426C33.7318 12.6199 33.8753 13.1644 33.9395 13.7227C34.0012 14.26 34 14.9261 34 15.7002V32.2998Z" fill="white"/>
</svg>
