<svg width="48" height="48" viewBox="0 0 48 48" fill="none" xmlns="http://www.w3.org/2000/svg">
<path d="M15.7002 17C14.8788 17 14.3478 17.0013 13.9512 17.0469C13.5754 17.0901 13.4482 17.1618 13.3809 17.2148C13.3192 17.2635 13.2635 17.3192 13.2148 17.3809C13.1618 17.4482 13.0901 17.5754 13.0469 17.9512C13.0013 18.3478 13 18.8788 13 19.7002V28.2998C13 29.1212 13.0013 29.6522 13.0469 30.0488C13.0901 30.4246 13.1618 30.5518 13.2148 30.6191C13.2635 30.6808 13.3192 30.7365 13.3809 30.7852C13.4482 30.8382 13.5754 30.9099 13.9512 30.9531C14.3478 30.9987 14.8788 31 15.7002 31H32.2998C33.1212 31 33.6522 30.9987 34.0488 30.9531C34.4246 30.9099 34.5518 30.8382 34.6191 30.7852C34.6808 30.7365 34.7365 30.6808 34.7852 30.6191C34.8382 30.5518 34.9099 30.4246 34.9531 30.0488C34.9987 29.6522 35 29.1212 35 28.2998V19.7002C35 18.8788 34.9987 18.3478 34.9531 17.9512C34.9099 17.5754 34.8382 17.4482 34.7852 17.3809C34.7365 17.3192 34.6808 17.2635 34.6191 17.2148C34.5518 17.1618 34.4246 17.0901 34.0488 17.0469C33.6522 17.0013 33.1212 17 32.2998 17H15.7002ZM32.2998 15C33.0739 15 33.74 14.9988 34.2773 15.0605C34.8356 15.1247 35.3801 15.2682 35.8574 15.6445C36.0424 15.7904 36.2096 15.9576 36.3555 16.1426C36.7318 16.6199 36.8753 17.1644 36.9395 17.7227C37.0012 18.26 37 18.9261 37 19.7002V28.2998C37 29.0739 37.0012 29.74 36.9395 30.2773C36.8753 30.8356 36.7318 31.3801 36.3555 31.8574C36.2096 32.0424 36.0424 32.2096 35.8574 32.3555C35.3801 32.7318 34.8356 32.8753 34.2773 32.9395C33.74 33.0012 33.0739 33 32.2998 33H15.7002C14.9261 33 14.26 33.0012 13.7227 32.9395C13.1644 32.8753 12.6199 32.7318 12.1426 32.3555C11.9576 32.2096 11.7904 32.0424 11.6445 31.8574C11.2682 31.3801 11.1247 30.8356 11.0605 30.2773C10.9988 29.74 11 29.0739 11 28.2998V19.7002C11 18.9261 10.9988 18.26 11.0605 17.7227C11.1247 17.1644 11.2682 16.6199 11.6445 16.1426C11.7904 15.9576 11.9576 15.7904 12.1426 15.6445C12.6199 15.2682 13.1644 15.1247 13.7227 15.0605C14.26 14.9988 14.9261 15 15.7002 15H32.2998Z" fill="white"/>
</svg>
