<svg width="48" height="48" viewBox="0 0 48 48" fill="none" xmlns="http://www.w3.org/2000/svg">
<path d="M11.2002 15.5C10.3788 15.5 9.8478 15.5013 9.45117 15.5469C9.07543 15.5901 8.94816 15.6618 8.88086 15.7148C8.81919 15.7635 8.76348 15.8192 8.71485 15.8809C8.66179 15.9482 8.59006 16.0754 8.54688 16.4512C8.50132 16.8478 8.5 17.3788 8.5 18.2002V28.7998C8.5 29.6212 8.50132 30.1522 8.54688 30.5488C8.59006 30.9246 8.66179 31.0518 8.71485 31.1191C8.76348 31.1808 8.81919 31.2365 8.88086 31.2852C8.94816 31.3382 9.07543 31.4099 9.45117 31.4531C9.8478 31.4987 10.3788 31.5 11.2002 31.5H35.7998C36.6212 31.5 37.1522 31.4987 37.5488 31.4531C37.9246 31.4099 38.0518 31.3382 38.1191 31.2852C38.1808 31.2365 38.2365 31.1808 38.2852 31.1191C38.3382 31.0518 38.4099 30.9246 38.4531 30.5488C38.4987 30.1522 38.5 29.6212 38.5 28.7998V18.2002C38.5 17.3788 38.4987 16.8478 38.4531 16.4512C38.4099 16.0754 38.3382 15.9482 38.2852 15.8809C38.2365 15.8192 38.1808 15.7635 38.1191 15.7148C38.0518 15.6618 37.9246 15.5901 37.5488 15.5469C37.1522 15.5013 36.6212 15.5 35.7998 15.5L11.2002 15.5ZM35.7998 13.5C36.5739 13.5 37.24 13.4988 37.7773 13.5605C38.3356 13.6247 38.8801 13.7682 39.3574 14.1445C39.5424 14.2904 39.7096 14.4576 39.8555 14.6426C40.2318 15.1199 40.3753 15.6644 40.4395 16.2227C40.5012 16.76 40.5 17.4261 40.5 18.2002V28.7998C40.5 29.5739 40.5012 30.24 40.4395 30.7773C40.3753 31.3356 40.2318 31.8801 39.8555 32.3574C39.7096 32.5424 39.5424 32.7096 39.3574 32.8555C38.8801 33.2318 38.3356 33.3753 37.7773 33.4395C37.24 33.5012 36.5739 33.5 35.7998 33.5H11.2002C10.4261 33.5 9.76001 33.5012 9.22266 33.4395C8.6644 33.3753 8.11993 33.2318 7.64258 32.8555C7.45756 32.7096 7.29043 32.5424 7.14453 32.3574C6.76822 31.8801 6.62471 31.3356 6.56055 30.7773C6.4988 30.24 6.5 29.5739 6.5 28.7998L6.5 18.2002C6.5 17.4261 6.4988 16.76 6.56055 16.2227C6.62471 15.6644 6.76822 15.1199 7.14453 14.6426C7.29043 14.4576 7.45756 14.2904 7.64258 14.1445C8.11993 13.7682 8.6644 13.6247 9.22266 13.5605C9.76001 13.4988 10.4261 13.5 11.2002 13.5L35.7998 13.5Z" fill="white"/>
</svg>
