<svg width="40" height="17" viewBox="0 0 40 17" fill="none" xmlns="http://www.w3.org/2000/svg">
<path d="M11.1079 0C11.4092 0.000129437 11.5547 0.149219 11.5445 0.447266L11.5152 1.28711H17.8501C18.1791 1.28716 18.3381 1.43691 18.3277 1.73535L18.2554 3.82422C18.2549 3.83752 18.2516 3.85057 18.2505 3.86328C17.5902 3.07394 16.5983 2.57129 15.4888 2.57129C14.1981 2.57148 13.0672 3.25163 12.4321 4.27246H11.4107L11.2769 8.11523H12.4624C13.1026 9.10977 14.218 9.76935 15.4888 9.76953C16.7324 9.76953 17.8285 9.13858 18.4751 8.17969C18.5946 8.24988 18.6515 8.37787 18.645 8.56348L18.5728 10.6338C18.5623 10.9323 18.3989 11.0811 18.0835 11.0811H15.5337C15.8098 12.5984 16.6367 13.4634 18.0142 13.6748C18.3141 13.7122 18.4591 13.8674 18.4497 14.1406L18.3677 16.5107C18.3567 16.8214 18.1869 16.9642 17.8589 16.9395C16.0387 16.8399 14.6449 16.2989 13.6782 15.3164C12.7258 14.3214 12.2066 12.9093 12.1196 11.0811H11.1734L10.9839 16.5107C10.9734 16.809 10.8167 16.958 10.5152 16.958H7.82082C7.51941 16.9579 7.37401 16.8089 7.3843 16.5107L7.57375 11.0811H6.62746C6.4128 12.9092 5.78803 14.3214 4.75246 15.3164C3.73092 16.2989 2.3061 16.8399 0.479022 16.9395C0.149232 16.9643 -0.0102121 16.8214 0.000506362 16.5107L0.0825376 14.1406C0.0922443 13.8673 0.249494 13.7121 0.552264 13.6748C1.2274 13.5753 1.79175 13.3073 2.24562 12.8721C2.71368 12.4243 3.03652 11.8272 3.2134 11.0811H0.662616C0.34747 11.0809 0.195165 10.9322 0.205584 10.6338L0.27785 8.56348C0.288269 8.26511 0.451022 8.11536 0.766131 8.11523H7.67726L7.81105 4.27246H1.47707C1.14802 4.27245 0.988131 4.1227 0.998553 3.82422L1.0718 1.73535C1.08222 1.43695 1.25169 1.2872 1.58058 1.28711H7.91555L7.94484 0.447266C7.95541 0.1491 8.11212 1.60855e-05 8.41359 0H11.1079ZM38.2759 0.0371094C38.6048 0.0371094 38.7643 0.180003 38.7544 0.46582L38.6685 2.92871H39.4097C39.7246 2.92883 39.8775 3.07177 39.8677 3.35742L39.7954 5.42871C39.785 5.72716 39.6215 5.87598 39.3062 5.87598H38.5659L38.2779 14.1221C38.2492 14.9429 37.9861 15.6021 37.4888 16.0996C37.0053 16.597 36.3456 16.8456 35.5093 16.8457H34.0073C33.6785 16.8456 33.5189 16.7029 33.5288 16.417L33.6021 14.3271C33.6122 14.0413 33.7819 13.8984 34.1109 13.8984H34.1929C34.5082 13.8984 34.6714 13.7303 34.6831 13.3945L34.9458 5.87598H33.979L33.8237 10.3164C33.7907 11.2616 33.6788 12.1134 33.4878 12.8721C33.2968 13.6307 33.0138 14.2838 32.6382 14.8311C32.2763 15.3783 31.8084 15.8134 31.2349 16.1367C30.661 16.4725 29.975 16.6905 29.1763 16.79C29.0109 16.8149 28.881 16.7904 28.7876 16.7158C28.708 16.6412 28.6706 16.5351 28.6753 16.3984L28.7612 13.9355C28.7652 13.8237 28.8034 13.7308 28.8745 13.6562C28.9457 13.5816 29.0439 13.5124 29.1695 13.4502C29.5182 13.276 29.7983 12.9152 30.0093 12.3682C30.2203 11.821 30.34 11.1371 30.3687 10.3164L30.5239 5.87598H29.9273C29.5983 5.87593 29.4393 5.72711 29.4497 5.42871L29.522 3.35742C29.5321 3.07165 29.7019 2.92871 30.0308 2.92871H35.0493L35.1353 0.46582C35.1454 0.180144 35.3144 0.0372321 35.6431 0.0371094H38.2759ZM26.1646 4.08496C26.4935 4.08503 26.6525 4.23478 26.6421 4.5332L26.4126 11.0996C26.4039 11.3484 26.3823 11.5979 26.3462 11.8467C26.3105 12.0829 26.2603 12.3256 26.1968 12.5742L27.8784 13.3018C28.1205 13.4386 28.2378 13.6189 28.23 13.8428L28.1529 16.0439C28.1441 16.2926 28.0304 16.417 27.8111 16.417C27.7153 16.417 27.6404 16.4046 27.5864 16.3799L24.648 15.1113C23.6702 16.0191 22.3479 16.5847 20.6812 16.8086C20.338 16.821 20.1713 16.6844 20.1812 16.3984L20.2612 14.1035C20.27 13.8548 20.4199 13.6928 20.7105 13.6182C21.401 13.4689 21.955 13.1212 22.3716 12.5742C22.7884 12.027 23.0065 11.4605 23.0269 10.876L23.2486 4.5332C23.259 4.23471 23.4292 4.08496 23.7583 4.08496H26.1646ZM28.6314 0.59668C28.9601 0.596817 29.1193 0.746567 29.1089 1.04492L28.7593 11.0439C28.7493 11.3299 28.5803 11.4725 28.2515 11.4727H27.3667C27.0376 11.4727 26.8782 11.33 26.8882 11.0439L27.1587 3.30176H22.8189L22.5484 11.0439C22.5384 11.33 22.3687 11.4727 22.0396 11.4727H21.1343C20.8054 11.4726 20.6458 11.3299 20.6558 11.0439L21.0054 1.04492C21.0158 0.746512 21.1853 0.596762 21.5142 0.59668H28.6314ZM15.4888 3.59961C16.9087 3.59961 18.0601 4.75099 18.0601 6.1709C18.0599 7.59067 16.9086 8.74121 15.4888 8.74121C14.0692 8.74093 12.9186 7.59049 12.9185 6.1709C12.9185 4.75116 14.0691 3.59989 15.4888 3.59961ZM5.80031 4.73828C6.13084 4.68865 6.29106 4.81317 6.28078 5.11133L6.2173 6.94043C6.20718 7.22618 6.06395 7.3875 5.78859 7.4248C5.33358 7.49941 4.82407 7.56158 4.26027 7.61133C3.69636 7.66108 3.0634 7.70488 2.36281 7.74219C2.04689 7.76688 1.89449 7.61715 1.90578 7.29395L1.97023 5.44727C1.98029 5.16151 2.13631 5.01257 2.43801 5C3.06959 4.97513 3.66072 4.94356 4.21047 4.90625C4.77437 4.8565 5.30453 4.80046 5.80031 4.73828ZM14.603 6.03027C14.554 6.07934 14.5293 6.10446 14.52 6.13281C14.5121 6.15754 14.5121 6.18425 14.52 6.20898C14.5293 6.23734 14.554 6.26246 14.603 6.31152L15.4898 7.19727L16.5161 6.1709L15.4898 5.14453L14.603 6.03027Z" fill="#D7DDEB"/>
</svg>
