<svg width="300" height="96" viewBox="0 0 300 96" fill="none" xmlns="http://www.w3.org/2000/svg">
<path d="M34.0572 92.5158C34.1037 92.5158 34.1365 92.5301 34.1552 92.5579C34.1832 92.5859 34.1929 92.6238 34.1836 92.6706L33.3969 95.6763C33.3782 95.7605 33.3264 95.8026 33.2421 95.8026H32.7924C32.7459 95.8026 32.7087 95.7885 32.6807 95.7605C32.662 95.7324 32.6567 95.6947 32.6661 95.6479L33.2842 92.6431C33.303 92.5589 33.3548 92.5158 33.439 92.5158H34.0572ZM13.9832 87.4742C14.8351 87.4743 15.4907 87.6892 15.9495 88.1199C16.4083 88.5506 16.6934 89.1595 16.8057 89.946C16.8432 90.2082 16.8626 90.5364 16.8626 90.9296V91.3783C16.8626 91.472 16.8151 91.5194 16.7215 91.5194H12.1855C12.148 91.5194 12.1287 91.5378 12.1287 91.5753C12.1474 92.0902 12.1755 92.4228 12.2129 92.5726C12.3159 92.9939 12.5362 93.3265 12.8732 93.5699C13.2103 93.8133 13.6411 93.9344 14.1654 93.9344C14.5587 93.9344 14.9053 93.8458 15.2049 93.6679C15.5045 93.49 15.7388 93.2373 15.9073 92.9096C15.9635 92.8254 16.0284 92.807 16.1033 92.8538L16.6509 93.1761C16.7258 93.2229 16.7452 93.2888 16.7078 93.373C16.4737 93.8224 16.1227 94.1787 15.6546 94.4409C15.1864 94.6937 14.6477 94.82 14.0391 94.82C13.3743 94.8107 12.8171 94.6509 12.3677 94.3419C11.9183 94.0329 11.5954 93.6021 11.3988 93.0497C11.2303 92.6003 11.146 91.9544 11.146 91.1119C11.146 90.7186 11.1504 90.4001 11.1597 90.1567C11.1785 89.9039 11.2162 89.6792 11.2724 89.4826C11.4316 88.874 11.7501 88.3871 12.2276 88.0219C12.7145 87.6568 13.2998 87.4742 13.9832 87.4742ZM51.8799 87.4742C52.7318 87.4743 53.3874 87.6892 53.8461 88.1199C54.3049 88.5506 54.59 89.1595 54.7024 89.946C54.7398 90.2082 54.7592 90.5364 54.7592 90.9296V91.3783C54.7592 91.472 54.7118 91.5194 54.6181 91.5194H50.0821C50.0447 91.5194 50.0253 91.5378 50.0253 91.5753C50.044 92.0902 50.0721 92.4228 50.1096 92.5726C50.2126 92.9939 50.4328 93.3265 50.7699 93.5699C51.1069 93.8133 51.5378 93.9344 52.0621 93.9344C52.4554 93.9344 52.8019 93.8458 53.1016 93.6679C53.4011 93.49 53.6355 93.2373 53.804 92.9096C53.8602 92.8254 53.9251 92.807 53.9999 92.8538L54.5476 93.1761C54.6225 93.2229 54.6418 93.2888 54.6044 93.373C54.3703 93.8224 54.0194 94.1787 53.5512 94.4409C53.0831 94.6937 52.5443 94.82 51.9357 94.82C51.2709 94.8107 50.7138 94.6509 50.2644 94.3419C49.8149 94.0329 49.4921 93.6021 49.2954 93.0497C49.1269 92.6003 49.0427 91.9544 49.0427 91.1119C49.0427 90.7186 49.047 90.4001 49.0564 90.1567C49.0751 89.9039 49.1129 89.6792 49.1691 89.4826C49.3282 88.874 49.6467 88.3871 50.1243 88.0219C50.6111 87.6568 51.1965 87.4742 51.8799 87.4742ZM89.0359 87.4742C89.8878 87.4743 90.5434 87.6892 91.0021 88.1199C91.4609 88.5506 91.746 89.1595 91.8584 89.946C91.8958 90.2082 91.9152 90.5364 91.9152 90.9296V91.3783C91.9152 91.472 91.8678 91.5194 91.7741 91.5194H87.2381C87.2007 91.5194 87.1813 91.5378 87.1813 91.5753C87.2 92.0902 87.2281 92.4228 87.2656 92.5726C87.3686 92.9939 87.5888 93.3265 87.9259 93.5699C88.2629 93.8133 88.6938 93.9344 89.2181 93.9344C89.6114 93.9344 89.9579 93.8458 90.2576 93.6679C90.5571 93.49 90.7915 93.2373 90.96 92.9096C91.0162 92.8254 91.0811 92.807 91.1559 92.8538L91.7036 93.1761C91.7785 93.2229 91.7978 93.2888 91.7604 93.373C91.5263 93.8224 91.1754 94.1787 90.7072 94.4409C90.2391 94.6937 89.7003 94.82 89.0917 94.82C88.4269 94.8107 87.8698 94.6509 87.4204 94.3419C86.971 94.0329 86.6481 93.6021 86.4514 93.0497C86.2829 92.6003 86.1987 91.9544 86.1987 91.1119C86.1987 90.7186 86.203 90.4001 86.2124 90.1567C86.2311 89.9039 86.2689 89.6792 86.3251 89.4826C86.4842 88.874 86.8027 88.3871 87.2803 88.0219C87.7671 87.6568 88.3525 87.4742 89.0359 87.4742ZM28.0438 87.4742C28.7086 87.4742 29.2798 87.6471 29.7573 87.9935C30.2442 88.3399 30.5768 88.8085 30.7547 89.3984C30.8857 89.8009 30.9516 90.3767 30.9516 91.1256C30.9516 91.884 30.8857 92.4605 30.7547 92.8538C30.5767 93.4622 30.2441 93.9397 29.7573 94.2861C29.2799 94.6324 28.7041 94.8053 28.0301 94.8053C27.356 94.8053 26.7751 94.6325 26.2882 94.2861C25.8015 93.9397 25.4645 93.4622 25.2772 92.8538C25.1461 92.423 25.0803 91.8465 25.0803 91.1256C25.0803 90.4047 25.1461 89.8334 25.2772 89.4121C25.4551 88.813 25.7877 88.3399 26.2745 87.9935C26.7613 87.6472 27.3511 87.4742 28.0438 87.4742ZM62.6614 87.4742C63.3448 87.4742 63.9346 87.6472 64.4308 87.9935C64.9363 88.3399 65.2646 88.7708 65.4144 89.2857C65.4612 89.4541 65.4893 89.5947 65.4986 89.707V89.7354C65.4986 89.8009 65.4564 89.843 65.3723 89.8618L64.6698 89.9597H64.6414C64.5761 89.9596 64.5337 89.9175 64.515 89.8334L64.4729 89.6227C64.3886 89.2672 64.1831 88.9677 63.8557 88.7243C63.528 88.4715 63.1296 88.3452 62.6614 88.3452C62.1933 88.3452 61.8002 88.4715 61.4819 88.7243C61.173 88.9677 60.9711 89.2951 60.8774 89.707C60.7932 90.0627 60.751 90.5358 60.751 91.1256C60.751 91.7432 60.7932 92.2208 60.8774 92.5579C60.9711 92.9792 61.1729 93.3171 61.4819 93.5699C61.8002 93.8132 62.1934 93.9344 62.6614 93.9344C63.1202 93.9344 63.5133 93.8177 63.841 93.5836C64.178 93.3402 64.3886 93.0313 64.4729 92.6568V92.6L64.4876 92.5442C64.497 92.4507 64.5532 92.4128 64.6561 92.4315L65.3439 92.5442C65.4375 92.5629 65.4796 92.6147 65.4702 92.699L65.4144 92.9801C65.2739 93.5229 64.9508 93.9628 64.4455 94.2998C63.9399 94.6369 63.345 94.8053 62.6614 94.8053C61.9873 94.8053 61.4064 94.6325 60.9195 94.2861C60.4422 93.9304 60.1148 93.4527 59.9369 92.8538C59.8152 92.4418 59.7537 91.8609 59.7537 91.1119C59.7537 90.4377 59.8152 89.8665 59.9369 89.3984C60.1054 88.818 60.4329 88.3546 60.9195 88.0082C61.4064 87.6524 61.9873 87.4742 62.6614 87.4742ZM69.9592 87.4742C70.6239 87.4742 71.1952 87.6471 71.6727 87.9935C72.1596 88.3399 72.4921 88.8085 72.67 89.3984C72.8011 89.8009 72.8669 90.3767 72.867 91.1256C72.867 91.884 72.8011 92.4605 72.67 92.8538C72.4921 93.4622 72.1595 93.9397 71.6727 94.2861C71.1953 94.6324 70.6195 94.8053 69.9455 94.8053C69.2714 94.8053 68.6905 94.6325 68.2036 94.2861C67.7168 93.9397 67.3798 93.4622 67.1925 92.8538C67.0615 92.423 66.9956 91.8465 66.9956 91.1256C66.9956 90.4047 67.0615 89.8334 67.1925 89.4121C67.3705 88.813 67.7031 88.3399 68.1899 87.9935C68.6767 87.6472 69.2665 87.4742 69.9592 87.4742ZM104.345 87.4742C105.009 87.4742 105.581 87.6471 106.058 87.9935C106.545 88.3399 106.878 88.8085 107.055 89.3984C107.186 89.8009 107.252 90.3767 107.252 91.1256C107.252 91.884 107.187 92.4605 107.055 92.8538C106.878 93.4622 106.545 93.9397 106.058 94.2861C105.581 94.6324 105.005 94.8053 104.331 94.8053C103.657 94.8053 103.076 94.6325 102.589 94.2861C102.102 93.9397 101.765 93.4622 101.578 92.8538C101.447 92.423 101.381 91.8465 101.381 91.1256C101.381 90.4047 101.447 89.8334 101.578 89.4121C101.756 88.813 102.088 88.3399 102.575 87.9935C103.062 87.6472 103.652 87.4742 104.345 87.4742ZM122.526 87.4742C123.368 87.4743 124.019 87.6894 124.477 88.1199C124.936 88.5505 125.166 89.1219 125.166 89.8334V94.5526C125.166 94.6462 125.119 94.6936 125.025 94.6936H124.309C124.215 94.6935 124.169 94.6461 124.169 94.5526V93.9765C124.169 93.958 124.159 93.9437 124.14 93.9344C124.131 93.9254 124.117 93.9305 124.098 93.9491C123.864 94.2298 123.56 94.4449 123.185 94.5947C122.811 94.7351 122.394 94.8053 121.935 94.8053C121.271 94.8052 120.714 94.6367 120.265 94.2998C119.815 93.9627 119.59 93.4477 119.59 92.7548C119.59 92.0527 119.843 91.5007 120.349 91.0981C120.864 90.6862 121.576 90.48 122.484 90.48H124.113C124.15 90.4798 124.169 90.4604 124.169 90.4231V89.8902C124.169 89.4127 124.033 89.038 123.761 88.7665C123.499 88.4856 123.087 88.3453 122.526 88.3452C122.076 88.3452 121.71 88.4338 121.43 88.6117C121.149 88.7802 120.976 89.019 120.91 89.3278C120.882 89.4214 120.826 89.4635 120.742 89.4542L119.984 89.3562C119.881 89.3375 119.838 89.2998 119.857 89.2436C119.932 88.7194 120.213 88.2937 120.7 87.9661C121.187 87.6383 121.796 87.4742 122.526 87.4742ZM133.503 87.4742C134.187 87.4742 134.777 87.6472 135.273 87.9935C135.778 88.3399 136.106 88.7708 136.256 89.2857C136.303 89.4541 136.331 89.5947 136.341 89.707V89.7354C136.341 89.8009 136.298 89.843 136.214 89.8618L135.512 89.9597H135.483C135.418 89.9596 135.376 89.9175 135.357 89.8334L135.315 89.6227C135.231 89.2672 135.025 88.9677 134.698 88.7243C134.37 88.4715 133.972 88.3452 133.503 88.3452C133.035 88.3452 132.642 88.4715 132.324 88.7243C132.015 88.9677 131.813 89.2951 131.719 89.707C131.635 90.0627 131.593 90.5358 131.593 91.1256C131.593 91.7432 131.635 92.2208 131.719 92.5579C131.813 92.9792 132.015 93.3171 132.324 93.5699C132.642 93.8132 133.035 93.9344 133.503 93.9344C133.962 93.9344 134.355 93.8177 134.683 93.5836C135.02 93.3402 135.231 93.0313 135.315 92.6568V92.6L135.33 92.5442C135.339 92.4507 135.395 92.4128 135.498 92.4315L136.186 92.5442C136.279 92.5629 136.322 92.6147 136.312 92.699L136.256 92.9801C136.116 93.5229 135.793 93.9628 135.287 94.2998C134.782 94.6369 134.187 94.8053 133.503 94.8053C132.829 94.8053 132.248 94.6325 131.761 94.2861C131.284 93.9304 130.957 93.4527 130.779 92.8538C130.657 92.4418 130.596 91.8609 130.596 91.1119C130.596 90.4377 130.657 89.8665 130.779 89.3984C130.947 88.818 131.275 88.3546 131.761 88.0082C132.248 87.6524 132.829 87.4742 133.503 87.4742ZM140.576 87.4742C141.418 87.4743 142.069 87.6894 142.527 88.1199C142.986 88.5505 143.216 89.1219 143.216 89.8334V94.5526C143.216 94.6462 143.169 94.6936 143.075 94.6936H142.359C142.265 94.6935 142.219 94.6461 142.219 94.5526V93.9765C142.219 93.958 142.209 93.9437 142.19 93.9344C142.181 93.9254 142.167 93.9305 142.148 93.9491C141.914 94.2298 141.61 94.4449 141.235 94.5947C140.861 94.7351 140.444 94.8053 139.985 94.8053C139.321 94.8052 138.764 94.6367 138.315 94.2998C137.865 93.9627 137.64 93.4477 137.64 92.7548C137.64 92.0527 137.893 91.5007 138.399 91.0981C138.914 90.6862 139.625 90.48 140.534 90.48H142.163C142.2 90.4798 142.219 90.4604 142.219 90.4231V89.8902C142.219 89.4127 142.083 89.038 141.811 88.7665C141.549 88.4856 141.137 88.3453 140.576 88.3452C140.126 88.3452 139.76 88.4338 139.48 88.6117C139.199 88.7802 139.026 89.019 138.96 89.3278C138.932 89.4215 138.876 89.4636 138.792 89.4542L138.033 89.3562C137.93 89.3375 137.888 89.2998 137.907 89.2436C137.982 88.7194 138.263 88.2937 138.75 87.9661C139.237 87.6383 139.845 87.4742 140.576 87.4742ZM97.9737 85.7608C98.0672 85.7608 98.1137 85.8074 98.1138 85.9008V87.5301C98.1138 87.5675 98.1331 87.5869 98.1706 87.5869H99.7577C99.8511 87.587 99.8978 87.6335 99.8978 87.727V88.2747C99.8978 88.3682 99.8511 88.4147 99.7577 88.4148H98.1706C98.1331 88.4148 98.1138 88.4341 98.1138 88.4716V92.6147C98.1138 93.064 98.2121 93.3827 98.4086 93.5699C98.6146 93.7478 98.9333 93.8364 99.3638 93.8364H99.7156C99.8089 93.8365 99.8555 93.8832 99.8557 93.9765V94.5526C99.8557 94.6461 99.809 94.6935 99.7156 94.6936C99.6032 94.703 99.4294 94.7073 99.1953 94.7073C98.5215 94.7073 98.0114 94.5808 97.6651 94.3282C97.3186 94.0754 97.1448 93.6068 97.1448 92.9233V88.4716C97.1448 88.4342 97.1264 88.4148 97.089 88.4148H96.2318C96.1384 88.4146 96.0917 88.3682 96.0917 88.2747V87.727C96.0917 87.6335 96.1384 87.587 96.2318 87.5869H97.089C97.1264 87.5869 97.1448 87.5675 97.1448 87.5301V85.9008C97.1449 85.8074 97.1924 85.7608 97.2859 85.7608H97.9737ZM3.22027 84.8614C3.3139 84.8614 3.36036 84.9088 3.36036 85.0025V89.2583C3.36052 89.2954 3.37989 89.3141 3.41718 89.3141H7.89734C7.93456 89.3141 7.95303 89.2954 7.95318 89.2583V85.0025C7.95318 84.9088 8.00063 84.8614 8.09426 84.8614H8.81042C8.90387 84.8615 8.95052 84.9089 8.95052 85.0025V94.5526C8.95052 94.6461 8.90387 94.6935 8.81042 94.6936H8.09426C8.00063 94.6936 7.95318 94.6462 7.95318 94.5526V90.2409C7.95317 90.2035 7.9347 90.1851 7.89734 90.1851H3.41718C3.37975 90.1851 3.36038 90.2035 3.36036 90.2409V94.5526C3.36036 94.6462 3.3139 94.6936 3.22027 94.6936H2.50411C2.41047 94.6936 2.36401 94.6462 2.36401 94.5526V85.0025C2.36401 84.9088 2.41047 84.8614 2.50411 84.8614H3.22027ZM19.7017 84.8614C19.7953 84.8614 19.8428 84.9088 19.8428 85.0025V94.5526C19.8428 94.6462 19.7953 94.6936 19.7017 94.6936H18.9856C18.892 94.6936 18.8455 94.6461 18.8455 94.5526V85.0025C18.8455 84.9089 18.892 84.8614 18.9856 84.8614H19.7017ZM22.9386 84.8614C23.0323 84.8614 23.0797 84.9088 23.0797 85.0025V94.5526C23.0797 94.6462 23.0323 94.6936 22.9386 94.6936H22.2225C22.1289 94.6936 22.0824 94.6461 22.0824 94.5526V85.0025C22.0824 84.9089 22.1289 84.8614 22.2225 84.8614H22.9386ZM39.5465 87.5869C39.6307 87.5869 39.6825 87.629 39.7013 87.7133L41.1894 93.2466C41.1987 93.2652 41.2085 93.2749 41.2178 93.275C41.2365 93.275 41.2506 93.2653 41.26 93.2466L42.7765 87.7133C42.7952 87.6291 42.8471 87.587 42.9313 87.5869H43.6054C43.6895 87.5869 43.7414 87.6238 43.7601 87.6986L45.2914 93.2329C45.3008 93.2513 45.315 93.2603 45.3335 93.2603C45.352 93.2602 45.3664 93.2514 45.3757 93.2329L46.906 87.7133C46.9247 87.629 46.9765 87.5869 47.0607 87.5869L47.7906 87.6006C47.8374 87.6006 47.8708 87.6147 47.8896 87.6428C47.9175 87.6708 47.9263 87.7087 47.917 87.7554L45.8949 94.581C45.8668 94.6558 45.815 94.6936 45.7401 94.6936H44.9965C44.9217 94.6936 44.8698 94.6558 44.8417 94.581L43.3105 89.3278C43.3011 89.3093 43.287 89.3004 43.2683 89.3004C43.2591 89.3005 43.2501 89.3095 43.2409 89.3278L41.7518 94.581C41.7237 94.6558 41.6719 94.6936 41.597 94.6936H40.8387C40.7638 94.6936 40.712 94.6558 40.6839 94.581L38.6902 87.7407L38.6755 87.6986C38.6756 87.6238 38.7231 87.5869 38.8166 87.5869H39.5465ZM57.5984 84.8614C57.692 84.8614 57.7394 84.9088 57.7394 85.0025V94.5526C57.7394 94.6462 57.692 94.6936 57.5984 94.6936H56.8822C56.7887 94.6936 56.7421 94.6461 56.7421 94.5526V85.0025C56.7421 84.9089 56.7887 84.8614 56.8822 84.8614H57.5984ZM82.079 87.488C82.781 87.488 83.3332 87.6988 83.7357 88.1199C84.1477 88.5412 84.3539 89.1177 84.3539 89.848V94.5526C84.3539 94.6462 84.3074 94.6936 84.2138 94.6936H83.5114C83.4178 94.6936 83.3713 94.6462 83.3713 94.5526V90.044C83.3712 89.5292 83.2211 89.1219 82.9216 88.8223C82.6313 88.5133 82.247 88.3589 81.7695 88.3589C81.2735 88.359 80.8714 88.5091 80.5625 88.8086C80.2629 89.1082 80.1128 89.5109 80.1128 90.0166V94.5526C80.1128 94.6462 80.0653 94.6936 79.9717 94.6936H79.2556C79.1621 94.6935 79.1155 94.6461 79.1155 94.5526V90.044C79.1154 89.5293 78.9706 89.1218 78.6805 88.8223C78.3903 88.5134 78.0014 88.359 77.5146 88.3589C77.0184 88.3589 76.62 88.509 76.3204 88.8086C76.0302 89.1082 75.8854 89.511 75.8854 90.0166V94.5526C75.8854 94.6462 75.838 94.6936 75.7443 94.6936H75.0282C74.9346 94.6936 74.8881 94.6461 74.8881 94.5526V87.727C74.8881 87.6334 74.9346 87.587 75.0282 87.5869H75.7443C75.838 87.5869 75.8854 87.6334 75.8854 87.727V88.2884C75.8854 88.307 75.8899 88.3211 75.8991 88.3305C75.9177 88.3305 75.9363 88.3216 75.955 88.3031C76.1609 88.0315 76.4233 87.8297 76.7417 87.6986C77.0694 87.5581 77.43 87.488 77.8232 87.488C78.3101 87.488 78.7269 87.5862 79.0733 87.7828C79.4198 87.9795 79.6821 88.2655 79.86 88.6401C79.8787 88.6865 79.9017 88.6864 79.9296 88.6401C80.1356 88.2562 80.4261 87.9701 80.8005 87.7828C81.1751 87.5862 81.6015 87.488 82.079 87.488ZM113.138 84.8614C113.232 84.8614 113.278 84.9088 113.278 85.0025V93.7659C113.278 93.8033 113.298 93.8227 113.335 93.8227H118.293C118.386 93.8227 118.434 93.8692 118.434 93.9628V94.5526C118.434 94.6462 118.386 94.6936 118.293 94.6936H112.422C112.329 94.6936 112.282 94.6462 112.282 94.5526V85.0025C112.282 84.9088 112.329 84.8614 112.422 84.8614H113.138ZM128.238 87.5722C128.332 87.5723 128.379 87.6198 128.379 87.7133V94.5388C128.379 94.6323 128.332 94.6788 128.238 94.6789H127.522C127.429 94.6789 127.381 94.6324 127.381 94.5388V87.7133C127.381 87.6197 127.429 87.5722 127.522 87.5722H128.238ZM146.288 87.5722C146.382 87.5723 146.429 87.6198 146.429 87.7133V94.5388C146.428 94.6323 146.382 94.6788 146.288 94.6789H145.572C145.479 94.6789 145.431 94.6324 145.431 94.5388V87.7133C145.431 87.6197 145.479 87.5722 145.572 87.5722H146.288ZM122.638 91.2667C122.02 91.2667 121.524 91.3931 121.149 91.6458C120.775 91.8986 120.587 92.2495 120.587 92.699C120.587 93.1107 120.728 93.4242 121.008 93.6395C121.299 93.8454 121.673 93.949 122.132 93.9491C122.684 93.9491 123.162 93.8129 123.564 93.5415C123.967 93.2606 124.169 92.886 124.169 92.4178V91.3225C124.169 91.2852 124.15 91.2668 124.113 91.2667H122.638ZM140.687 91.2667C140.07 91.2667 139.574 91.3931 139.199 91.6458C138.825 91.8986 138.637 92.2495 138.637 92.699C138.637 93.1107 138.778 93.4242 139.058 93.6395C139.348 93.8454 139.723 93.949 140.182 93.9491C140.734 93.9491 141.212 93.8129 141.614 93.5415C142.017 93.2606 142.219 92.886 142.219 92.4178V91.3225C142.219 91.2852 142.2 91.2668 142.163 91.2667H140.687ZM28.0154 88.3452C27.5568 88.3452 27.1679 88.4716 26.8496 88.7243C26.5314 88.9678 26.3163 89.3005 26.204 89.7217C26.1291 90.0494 26.0913 90.5225 26.0913 91.1403C26.0913 91.7578 26.1291 92.2303 26.204 92.5579C26.307 92.9792 26.5175 93.3171 26.8359 93.5699C27.1636 93.8133 27.562 93.9344 28.0301 93.9344C28.4793 93.9343 28.8631 93.8132 29.1813 93.5699C29.4996 93.3171 29.7155 92.9792 29.8279 92.5579C29.912 92.2209 29.9542 91.7484 29.9542 91.1403C29.9542 90.5225 29.9164 90.0494 29.8416 89.7217C29.7292 89.3003 29.509 88.9678 29.1813 88.7243C28.8629 88.4715 28.4742 88.3452 28.0154 88.3452ZM69.9308 88.3452C69.4721 88.3452 69.0832 88.4716 68.765 88.7243C68.4468 88.9678 68.2317 89.3005 68.1193 89.7217C68.0445 90.0494 68.0067 90.5225 68.0067 91.1403C68.0067 91.7578 68.0445 92.2303 68.1193 92.5579C68.2223 92.9792 68.4329 93.3171 68.7512 93.5699C69.0789 93.8133 69.4774 93.9344 69.9455 93.9344C70.3947 93.9343 70.7784 93.8132 71.0966 93.5699C71.415 93.3171 71.6309 92.9792 71.7432 92.5579C71.8274 92.2209 71.8696 91.7484 71.8696 91.1403C71.8696 90.5225 71.8318 90.0494 71.757 89.7217C71.6446 89.3003 71.4244 88.9678 71.0966 88.7243C70.7783 88.4715 70.3896 88.3452 69.9308 88.3452ZM104.316 88.3452C103.858 88.3452 103.469 88.4716 103.15 88.7243C102.832 88.9678 102.617 89.3005 102.505 89.7217C102.43 90.0494 102.392 90.5225 102.392 91.1403C102.392 91.7578 102.43 92.2303 102.505 92.5579C102.608 92.9792 102.818 93.3171 103.137 93.5699C103.464 93.8133 103.863 93.9344 104.331 93.9344C104.78 93.9343 105.164 93.8132 105.482 93.5699C105.8 93.3171 106.016 92.9792 106.129 92.5579C106.213 92.2209 106.255 91.7484 106.255 91.1403C106.255 90.5225 106.217 90.0494 106.142 89.7217C106.03 89.3003 105.81 88.9678 105.482 88.7243C105.164 88.4715 104.775 88.3452 104.316 88.3452ZM13.9832 88.3452C13.5245 88.3452 13.1401 88.4663 12.8311 88.7096C12.5315 88.9437 12.335 89.2624 12.2413 89.6648C12.1851 89.8615 12.1474 90.18 12.1287 90.6201C12.1287 90.6575 12.148 90.6759 12.1855 90.6759H15.8231C15.8603 90.6758 15.8789 90.6574 15.8789 90.6201C15.8602 90.199 15.8321 89.8996 15.7947 89.7217C15.6917 89.3004 15.481 88.9678 15.1628 88.7243C14.8539 88.4716 14.4606 88.3453 13.9832 88.3452ZM51.8799 88.3452C51.4212 88.3452 51.0367 88.4663 50.7278 88.7096C50.4282 88.9437 50.2316 89.2624 50.138 89.6648C50.0818 89.8615 50.044 90.18 50.0253 90.6201C50.0253 90.6575 50.0447 90.6759 50.0821 90.6759H53.7197C53.757 90.6758 53.7756 90.6574 53.7756 90.6201C53.7569 90.199 53.7287 89.8996 53.6913 89.7217C53.5884 89.3004 53.3777 88.9678 53.0594 88.7243C52.7505 88.4716 52.3572 88.3453 51.8799 88.3452ZM89.0359 88.3452C88.5772 88.3452 88.1927 88.4663 87.8838 88.7096C87.5842 88.9437 87.3876 89.2624 87.294 89.6648C87.2378 89.8615 87.2 90.18 87.1813 90.6201C87.1813 90.6575 87.2007 90.6759 87.2381 90.6759H90.8758C90.913 90.6758 90.9316 90.6574 90.9316 90.6201C90.9129 90.199 90.8848 89.8996 90.8473 89.7217C90.7444 89.3004 90.5337 88.9678 90.2154 88.7243C89.9065 88.4716 89.5132 88.3453 89.0359 88.3452ZM127.915 84.7213C128.14 84.7213 128.327 84.7961 128.477 84.9456C128.626 85.0861 128.702 85.2739 128.702 85.508C128.702 85.7326 128.626 85.9196 128.477 86.0694C128.327 86.2191 128.14 86.2947 127.915 86.2947C127.69 86.2947 127.503 86.2192 127.353 86.0694C127.203 85.9196 127.129 85.7324 127.128 85.508C127.128 85.2739 127.203 85.0861 127.353 84.9456C127.503 84.7958 127.69 84.7213 127.915 84.7213ZM145.965 84.7213C146.19 84.7213 146.377 84.7961 146.526 84.9456C146.676 85.0861 146.752 85.2739 146.752 85.508C146.752 85.7326 146.676 85.9196 146.526 86.0694C146.377 86.2191 146.19 86.2947 145.965 86.2947C145.74 86.2947 145.553 86.2192 145.403 86.0694C145.253 85.9196 145.178 85.7324 145.178 85.508C145.178 85.2739 145.253 85.0861 145.403 84.9456C145.553 84.7958 145.74 84.7213 145.965 84.7213ZM50.231 63.0318C50.231 63.9948 50.5317 64.3563 51.4645 64.3563H53.2407C54.5046 64.3563 55.4373 64.025 56.3101 63.1523L57.905 65.771C56.9119 66.8844 55.7684 67.3062 54.0832 67.3062H50.0802C47.6425 67.3062 46.4985 66.1621 46.4984 63.8449V61.1361H40.9004V61.8581C40.6897 64.958 38.7941 66.8242 32.5642 68.1184L30.4274 64.9882C36.1758 63.9951 37.3196 63.0016 37.3196 60.2328V58.3067H50.231V63.0318ZM127.668 49.2484H128.752L130.347 46.1477H134.049L132.243 49.2484H135.253V52.3178H129.866V54.4242H134.741V57.4642H129.866V67.9077H126.374V57.4642H121.529V54.4242H126.374V52.3178H120.927V49.2484H124.087L122.311 46.1477H125.803L127.668 49.2484ZM166.462 54.816C166.462 55.4781 166.492 56.4111 166.342 57.374C167.817 61.0759 171.158 63.2727 178.14 64.2358L176.485 67.9077C169.833 66.6136 166.583 64.597 164.567 61.0156C162.881 64.3261 159.691 66.2524 152.558 67.9077L150.964 64.3867C158.698 62.9421 161.617 60.9856 162.34 57.8257C162.581 56.9229 162.52 55.6587 162.52 54.816H166.462ZM147.713 44.4028C146.389 45.0348 145.425 45.215 143.8 45.215H139.586V49.6089H148.014V52.9801H145.546V67.607H142.085V52.9801H139.586V53.5218C139.586 60.4138 138.985 63.5141 137.089 67.848L133.387 66.8839C135.493 62.8813 136.096 60.2326 136.096 53.2505V41.9046H143.228C144.642 41.9046 145.907 41.6639 147.201 40.9416L147.713 44.4028ZM6.89217 60.8647C6.16986 63.3326 5.3272 65.6508 4.42431 67.7275L0.631905 67.3963C1.65518 65.1692 2.6185 62.8209 3.13013 60.8647H6.89217ZM24.9196 60.8647C25.7924 62.6404 26.7561 65.1692 27.5687 67.3963L23.6558 67.7275C22.9937 65.5906 22.1513 63.0316 21.2183 60.8647H24.9196ZM12.0983 60.8647C12.5798 63.1821 13.0012 65.2594 13.3925 67.2758L9.5109 67.607C9.20994 65.5604 8.848 63.3025 8.45675 60.8647H12.0983ZM18.4487 60.8647C19.2312 63.152 19.8035 65.0487 20.4355 67.2758L16.553 67.607C16.1316 65.5604 15.4392 62.9714 14.8071 60.8647H18.4487ZM191.684 62.6409C191.684 63.7543 192.105 64.176 193.218 64.1761H198.034C199.388 64.176 200.622 63.8744 201.645 63.2424L203.15 65.9513C201.736 66.9143 200.171 67.3062 198.425 67.3062H191.864C189.336 67.3062 188.102 66.1319 188.102 63.4834V59.3305H191.684V62.6409ZM115.63 67.0044H93.1183V59.0895H115.63V67.0044ZM86.7375 58.3674H80.8388V63.3629H87.9416V66.8546H70.1845V63.3629H77.0463V58.3674H71.1172V54.9062H86.7375V58.3674ZM69.6731 65.1087L60.9754 66.493L60.463 62.7614L69.6731 61.5573V65.1087ZM186.959 59.5411C186.417 62.1293 185.634 64.3868 184.34 66.4333L180.939 65.4702C182.203 63.6344 183.257 61.1663 183.528 59.5411H186.959ZM205.798 59.5411C206.039 61.1663 207.093 63.6344 208.357 65.4702L204.956 66.4333C203.662 64.3868 202.88 62.1293 202.338 59.5411H205.798ZM125.682 59.1492C124.84 61.2861 123.967 63.2729 123.064 65.1087L120.445 63.8145C121.318 62.0389 122.161 60.2026 122.943 58.1862L125.682 59.1492ZM96.8803 64.4161H111.868V61.6778H96.8803V64.4161ZM133.056 58.0667C133.688 59.4509 134.32 60.5949 135.102 61.8287L132.694 63.5735C131.852 62.1893 131.099 60.8051 130.437 59.2403L133.056 58.0667ZM199.268 62.9416H195.716L194.121 58.7583H197.673L199.268 62.9416ZM155.056 55.0864C156.651 56.4107 158.217 57.7955 159.451 58.9993L156.952 61.4368C155.839 60.2932 154.213 58.6978 152.708 57.4338L155.056 55.0864ZM176.123 57.4642C174.649 58.8785 172.813 60.4133 171.579 61.4065L169.382 58.9386C170.857 57.7649 172.392 56.441 173.686 55.1168L176.123 57.4642ZM294.322 51.1177C294.627 52.9692 296.078 54.4199 297.93 54.7249L300 55.0668L297.93 55.4078C296.078 55.7128 294.627 57.1635 294.322 59.015L293.981 61.0861L293.64 59.015C293.372 57.388 292.218 56.0711 290.686 55.5684H219.743C219.466 55.5684 219.242 55.3436 219.242 55.0668C219.242 54.7898 219.466 54.5652 219.743 54.5652H290.682C292.216 54.0635 293.371 52.746 293.64 51.1177L293.981 49.0476L294.322 51.1177ZM69.2215 40.7005C67.5662 43.7704 66.061 46.4192 64.5562 48.7968C65.3387 48.7667 66.1517 48.7365 66.9643 48.6763C67.4759 47.8035 67.9875 46.9 68.4691 46.0272L72.0509 46.8099C69.8841 50.2407 67.5665 53.6416 65.6103 56.3502L69.6731 55.9897V59.21L60.8549 59.9928V56.8626C61.6675 56.3811 62.2395 55.8694 62.8113 55.0267C63.4734 54.1238 64.165 53.0701 64.8873 51.9867L60.5541 52.2277L60.5237 49.0378C61.1858 48.5863 61.4866 48.1945 61.9982 47.2616C63.1117 45.2152 64.3157 42.597 65.339 40.0089L69.2215 40.7005ZM57.2731 59.5107H53.6619V56.892H34.6705V59.5107H31.0593V54.0333H57.2731V59.5107ZM15.3793 42.2651H27.2375V45.8469H15.3793V48.1041H24.95V59.0895H3.34077V48.1041H11.5565V40.2195H15.3793V42.2651ZM200.862 43.138H203.06L202.247 40.8211H205.256L206.07 43.138H207.906V46.0575H201.044C201.224 48.2845 201.495 49.7594 201.856 50.9932C202.969 49.8195 203.812 48.5556 204.565 47.1411L207.514 48.4353C206.189 50.6622 204.775 52.4983 203.18 54.1234C203.632 54.7554 204.083 54.9659 204.565 54.9659C205.347 54.9659 205.979 54.6049 206.611 53.9127L208.357 56.652C207.153 58.0364 205.979 58.4272 204.565 58.4272C203.15 58.4272 201.795 57.8858 200.652 56.3208C199.93 56.8625 199.147 57.3739 198.335 57.8854L197.311 54.575C197.973 54.1838 198.606 53.762 199.177 53.3406C198.485 51.5048 198.003 49.4883 197.732 46.0575H186.777V48.9173C186.777 53.5216 186.205 56.2601 185.062 58.3968L181.481 58.0363C183.287 55.2073 183.528 52.9198 183.528 48.9173V43.138H197.522C197.492 42.2354 197.462 41.2726 197.432 40.2195H200.772C200.802 41.2726 200.832 42.2655 200.862 43.138ZM196.619 57.8854H187.832V51.1138H196.619V57.8854ZM113.252 57.4338H95.496V50.7229H113.252V57.4338ZM7.25368 55.5381H21.037V51.6555H7.25368V55.5381ZM190.6 55.5077H193.82V53.4611H190.6V55.5077ZM99.1669 55.0267H109.581V53.1603H99.1669V55.0267ZM85.7147 45.0347C84.6914 46.359 83.6375 47.5325 82.4337 48.5558C84.3296 49.4887 86.2557 50.4515 88.0915 51.4145L85.9547 54.3948C83.5472 52.9803 81.5911 51.8968 79.4544 50.7532C77.3478 52.0774 74.7895 53.1904 71.419 54.334L69.823 50.7229C76.2335 48.887 79.0934 47.262 81.2904 44.9446H71.5992V41.5137H85.7147V45.0347ZM175.522 54.0636H153.04V51.0236H171.669V49.1573H154.093V46.2084H171.669V44.4626H153.281V41.4226H175.522V54.0636ZM53.7824 52.6793H34.5206V46.4494H53.7824V52.6793ZM117.316 51.7457H113.644V49.1573H95.1041V51.7457H91.4322V46.5092H117.316V51.7457ZM38.2219 50.3016H50.0802V48.8869H38.2219V50.3016ZM196.649 49.7902H187.801V47.3821H196.649V49.7902ZM101.033 41.8145H107.715V40.2195H111.387V41.8145H117.917V44.6429H111.387V45.9076H107.715V44.6429H101.033V45.9076H97.3613V44.6429H90.8307V41.8145H97.3613V40.2195H101.033V41.8145ZM130.136 42.416H134.681V45.4864H121.529V42.416H126.284V40.2195H130.136V42.416ZM46.4386 42.1456H57.7248V45.1249H30.6381V42.1456H41.9242V40.2195H46.4386V42.1456ZM99.2277 14.6573C99.2277 15.4394 99.197 16.1615 99.1669 16.8234C100.371 19.8328 102.357 21.97 105.186 23.9262L102.839 26.5753C100.853 25.1006 99.3478 23.4452 98.2343 21.6396C97.2712 24.017 95.5552 25.8226 92.6059 27.9292L90.3193 24.9803C95.0143 21.9105 96.1573 19.9537 96.1573 14.3859V6.19953H99.2277V14.6573ZM7.64458 0.180264C7.61449 1.7752 7.61421 3.28018 7.61421 4.78484H13.7843C13.7242 10.2622 13.6338 16.5226 13.4532 23.595C13.393 25.9425 12.1289 27.1767 9.81167 27.1768H6.65117V23.3246H8.51749C9.39014 23.3245 9.90208 22.8427 9.93217 22.0001C10.0826 18.6595 10.2026 13.6637 10.2026 8.30685H7.52408V8.75849C7.13282 19.0812 6.41014 22.332 2.43749 27.7793L0 24.6786C3.03957 20.074 3.61152 17.7867 3.97267 8.69775V8.30685H0.84254V4.78484H4.03243C4.06252 3.34036 4.06281 1.83539 4.06281 0.180264H7.64458ZM76.1734 2.94987H86.2261V6.38077H76.1734V12.7606H87.5203V16.1915H77.739C80.5379 19.201 83.4569 20.8569 88.0013 22.4821L85.8646 26.0639C81.5307 24.0173 78.6413 22.1508 76.1734 19.2315V27.7793H72.3213V19.2011C69.8233 22.1806 66.934 24.1973 62.54 26.4244L60.4032 22.9337C64.9177 21.1581 67.9269 19.2613 70.7861 16.1915H61.0351V12.7606H72.3213V6.38077H62.2696V2.94987H72.3213V0H76.1734V2.94987ZM40.5996 0C43.3383 2.6484 45.024 5.02595 47.7024 10.8041C50.7121 17.3651 53.2107 20.375 57.8756 23.6254L54.6554 27.4482C49.7196 22.8736 47.5217 19.9239 44.2412 12.2795C42.1344 18.2986 39.0949 22.6626 32.9854 27.6284L30.3069 23.9565C36.7475 19.1412 39.9073 14.7471 41.7733 7.31344C40.5996 5.47765 39.155 3.7925 37.3794 2.19746L40.5996 0ZM115.269 4.69471H117.917V8.21672H115.269V23.2943C115.269 26.063 114.276 27.4774 111.507 27.4776H108.076V23.9565H109.911C111.296 23.9565 111.718 23.4451 111.718 22.1813V13.8137C109.912 17.5756 108.106 19.9235 105.157 22.4214L102.659 19.5322C106.932 15.981 108.798 13.3629 111.025 8.21672H104.675V4.69471H111.718V0.120503H115.269V4.69471ZM26.5145 25.672H15.6801V2.82937H26.5145V25.672ZM19.1717 22.151H22.9337V6.3504H19.1717V22.151ZM103.652 18.2988H100.642V4.69471H94.7436V19.2922H91.734V1.20405H103.652V18.2988ZM66.8741 6.6208C68.1683 8.00523 69.2521 9.2699 70.4559 10.7747L67.1152 12.7008C66.0919 11.2261 64.9175 9.78156 63.7136 8.30685L66.8741 6.6208ZM84.8114 8.33625C83.6076 9.84099 82.5244 11.1357 81.2003 12.5803L77.9496 10.7747C79.2739 9.42038 80.5074 7.94519 81.5608 6.53066L84.8114 8.33625Z" fill="#0F1E2B"/>
</svg>
