<svg width="156" height="21" viewBox="0 0 156 21" fill="none" xmlns="http://www.w3.org/2000/svg">
<path d="M68.3008 20.4404H66.2412L67.3008 14.4404H70.2207L68.3008 20.4404Z" fill="white"/>
<path fill-rule="evenodd" clip-rule="evenodd" d="M64.001 2.75977C62.901 3.17977 62.1408 3.32031 60.8408 3.32031H55.2412V5.48047H63.2812V7.83984C62.7413 10.1398 61.9611 12.0999 60.7012 13.8398C61.6812 14.7398 62.8612 15.4801 64.2812 16.1201L62.8213 18.3203C61.3613 17.4603 60.1607 16.5801 59.1807 15.6201C58.1007 16.66 56.7805 17.6201 55.1406 18.5L54.001 16.2598C55.5008 15.4799 56.7007 14.7002 57.6406 13.8203C56.5406 12.2403 55.7812 10.4 55.2412 8.04004V8.41992C55.2412 12.7598 54.7413 15.02 52.5215 18.2998L50.7207 16.46C52.4207 14.02 52.9014 12.1599 52.9014 8.37988V0.94043H60.5215C61.7213 0.940399 62.5016 0.799835 63.5615 0.379883L64.001 2.75977ZM57.4414 7.83984C57.8614 9.49974 58.4207 10.8801 59.1807 12.04C59.9807 10.86 60.5214 9.49984 60.9014 7.83984H57.4414Z" fill="white"/>
<path d="M50.4814 3.2998H52.3613V5.56055H50.4814V7.17969L52.3408 8.52051V11.46L50.4814 9.90039V18.4805H48.2207V10.4404C47.7407 11.7603 47.1613 13.0404 46.4414 14.2803L45.9209 10.7803C46.7808 9.30038 47.5611 7.46039 48.1211 5.56055H46.1211V3.2998H48.2207V0.0800781H50.4814V3.2998Z" fill="white"/>
<path d="M89.5205 0.0800781C89.5205 0.720078 89.5802 3.08016 89.6602 5.16016H95.8203V7.52051H89.7803C89.8803 9.0003 90.0002 10.1602 90.1602 11.1201C91.2402 10.0801 92.1599 8.93973 92.9199 7.71973L95.0605 9.21973C93.8005 10.8997 92.4599 12.4003 90.9199 13.7803C91.0599 14.1402 91.2405 14.4599 91.4404 14.7998C91.8804 15.5398 92.2607 15.7402 92.7607 15.7402C93.3205 15.7401 93.8003 15.5198 94.54 14.96L95.8799 17.2998C94.9799 18.0397 94.1801 18.4805 92.7002 18.4805C91.3602 18.4804 90.2002 17.9401 89.2002 16.1201C89.0803 15.9002 88.9603 15.6803 88.8604 15.4404C87.8404 16.2004 86.74 16.8996 85.54 17.5996L84.0205 15.3604C85.4803 14.6404 86.8001 13.8403 88 12.9404C87.66 11.5205 87.4208 9.78029 87.3008 7.52051H83.6807V9.82031C84.7006 9.68033 85.7007 9.55991 86.6406 9.41992V11.8203C85.6607 11.9603 84.6606 12.1003 83.6807 12.2402V15.7197C83.6807 17.4596 83.1404 18.2801 81.7207 18.2803H79.1807V15.8799H80.1406C80.8604 15.8798 81.1006 15.6997 81.1006 14.8398V12.5996C80.1006 12.7396 79.0805 12.9006 78.0605 13.0605L77.6807 10.5205C78.7406 10.4205 79.9007 10.2796 81.1006 10.1396V7.52051H77.8203V5.16016H81.1006V3.37988H78.46L78.1602 1.04004H83.3008C84.2205 1.04 85.0602 0.919922 85.9199 0.580078L86.2207 2.90039C85.4408 3.28034 84.6405 3.37986 83.6807 3.37988V5.16016H87.1602C87.0602 3.06016 86.9404 0.700078 86.9404 0.0800781H89.5205Z" fill="white"/>
<path d="M108.08 1.98047H114.761V4.26074H108.08V8.50098H115.62V10.7803H109.12C110.98 12.7803 112.92 13.8809 115.94 14.9609L114.521 17.3408C111.641 15.9808 109.72 14.7408 108.08 12.8008V18.4805H105.521V12.7803C103.861 14.7602 101.94 16.1001 99.0205 17.5801L97.6006 15.2607C100.6 14.0808 102.6 12.8202 104.5 10.7803H98.0205V8.50098H105.521V4.26074H98.8408V1.98047H105.521V0.0205078H108.08V1.98047Z" fill="white"/>
<path d="M124.16 1.37988H127.34V3.17969H124.16V4.16016H126.94V5.83984H124.141C124.121 6.19984 124.101 6.54035 124.061 6.86035H127.5V8.67969H123.641C123.301 9.57969 122.78 10.3405 122 11.0605H125.58V9.75977H128.141V11.0605H134.04V14.7197C134.04 16.4197 133.4 17.2803 131.74 17.2803H129.721V15.2402H130.681C131.36 15.2402 131.561 15.0399 131.561 14.5V13.0996H128.141V18.4805H125.58V13.0996H122.36V17.2197H119.88V12.46L118.28 11.0205C119.62 10.2205 120.5 9.53969 121.04 8.67969H118.141V6.86035H121.721C121.781 6.54035 121.82 6.19984 121.84 5.83984H118.86V4.16016H121.88V3.17969H118.521V1.37988H121.88V0.0800781H124.16V1.37988Z" fill="white"/>
<path d="M144.021 0.419922C143.501 1.97992 142.9 3.52 142.24 5V18.4805H139.78V9.58008C139.3 10.34 138.78 11.0803 138.24 11.7803L137.601 8.54004C139.181 6.16006 140.48 3.29996 141.36 0L144.021 0.419922Z" fill="white"/>
<path d="M150.801 15.4199C150.801 17.2399 150.14 18.2803 148.36 18.2803H146.2V15.8604H147.261C148.02 15.8603 148.28 15.6397 148.28 14.8398V5.87988H150.801V15.4199Z" fill="white"/>
<path d="M34.6211 1.94043H38.7012V4.16016H34.6211V6.13965H36.7412C38.3811 4.71971 39.8213 3.1 41.2412 1.12012L43.3809 2.62012C42.3209 3.96003 41.3207 5.1197 40.3008 6.13965H44.1211V8.36035H37.8408C36.301 9.58015 34.6212 10.6398 32.5615 11.6797V12.5205C35.6614 11.9005 38.7813 11.0201 41.2412 10.1201L42.1406 12.2598C39.3008 13.1997 35.7413 14.1797 32.5615 14.6797C32.6015 15.4997 32.9012 15.7803 33.7412 15.7803H39.2012C40.3611 15.7803 40.8813 15.62 41.7812 15L43.041 17.0605C42.0211 17.8404 41.121 18.04 39.7012 18.04H33.1611C30.8411 18.04 29.9609 17.0799 29.9609 14.8799V12.9199C28.961 13.3599 27.9007 13.8198 26.7207 14.2998L25.8613 11.9004C29.0412 10.8204 31.5612 9.68032 33.7012 8.36035H26.1211V6.13965H32.041V4.16016H27.7412V1.94043H32.041V0.0800781H34.6211V1.94043Z" fill="white"/>
<path d="M2.82031 7.86035H10.2598V1.52051H13.1201V16.8408H10.2598V10.3408H2.82031V16.8408H0V1.52051H2.82031V7.86035Z" fill="white"/>
<path d="M18.6934 16.8408H15.9736V5.4209H18.6934V16.8408Z" fill="white"/>
<path d="M147.641 8.91992C146.961 10.9198 145.96 13.5396 145.12 15.5996L142.82 14.6396C143.72 12.6797 144.72 10.0396 145.36 8.17969L147.641 8.91992Z" fill="white"/>
<path d="M153.58 8.17969C154.18 10.0396 155.1 12.6797 155.94 14.6396L153.641 15.5996C152.861 13.5397 151.941 10.9198 151.301 8.91992L153.58 8.17969Z" fill="white"/>
<path d="M135.04 2.71973L133.84 4.83984C134.94 5.63984 135.42 6.44027 135.42 7.28027C135.42 8.62018 134.76 9.62012 133.12 9.62012H131.46V7.67969H132.16C132.82 7.67969 133.061 7.39992 133.061 6.91992C133.06 6.41995 132.58 5.8 131.46 5.08008L132.721 2.7998H130.46V10.2598H128.181V0.860352H135.04V2.71973Z" fill="white"/>
<path d="M101.9 4.4209C102.76 5.34081 103.48 6.18075 104.28 7.18066L102.061 8.46094C101.381 7.48094 100.601 6.52004 99.8008 5.54004L101.9 4.4209Z" fill="white"/>
<path d="M113.82 5.56055C113.02 6.56053 112.3 7.42087 111.42 8.38086L109.261 7.18066C110.141 6.2807 110.96 5.30031 111.66 4.36035L113.82 5.56055Z" fill="white"/>
<path d="M148.66 0.280273C148.42 1.02016 148.16 1.71997 147.92 2.37988H155.62V4.55957L154.681 7.24023H152.12L153.061 4.75977H146.88C146.26 5.99974 145.56 7.13983 144.74 8.2998L142.801 6.59961C144.261 4.63981 145.261 2.60001 146.021 0.280273H148.66Z" fill="white"/>
<path d="M95.0605 4.58008H92.46L90.1602 0.839844H92.7207L95.0605 4.58008Z" fill="white"/>
<path d="M17.3535 0.640625C17.7934 0.640685 18.1937 0.801153 18.5137 1.12109C18.8333 1.44095 19.0136 1.84067 19.0137 2.32031C19.0137 2.7803 18.8337 3.18098 18.5137 3.50098C18.1937 3.82092 17.7934 4.00091 17.3535 4.00098C16.8735 4.00098 16.4528 3.82098 16.1328 3.50098C15.7929 3.18099 15.6328 2.78028 15.6328 2.32031C15.6328 2.08043 15.6735 1.86007 15.7734 1.66016C15.8534 1.46053 15.9732 1.28085 16.1328 1.12109C16.2927 0.9612 16.473 0.840742 16.6729 0.760742C16.8729 0.680742 17.1135 0.640625 17.3535 0.640625Z" fill="white"/>
</svg>
